<?xml version="1.0" encoding="UTF-8" standalone="no"?>
<!-- Created with Inkscape (http://www.inkscape.org/) -->

<svg
   xmlns:dc="http://purl.org/dc/elements/1.1/"
   xmlns:cc="http://creativecommons.org/ns#"
   xmlns:rdf="http://www.w3.org/1999/02/22-rdf-syntax-ns#"
   xmlns:svg="http://www.w3.org/2000/svg"
   xmlns="http://www.w3.org/2000/svg"
   xmlns:sodipodi="http://sodipodi.sourceforge.net/DTD/sodipodi-0.dtd"
   xmlns:inkscape="http://www.inkscape.org/namespaces/inkscape"
   width="327.55374"
   height="327.13745"
   id="svg3885"
   version="1.1"
   inkscape:version="0.47 r22583"
   sodipodi:docname="krikkit_drive_angles.pdf">
  <defs
     id="defs3887">
    <inkscape:perspective
       sodipodi:type="inkscape:persp3d"
       inkscape:vp_x="0 : 526.18109 : 1"
       inkscape:vp_y="0 : 1000 : 0"
       inkscape:vp_z="744.09448 : 526.18109 : 1"
       inkscape:persp3d-origin="372.04724 : 350.78739 : 1"
       id="perspective3893" />
    <inkscape:perspective
       id="perspective3781"
       inkscape:persp3d-origin="0.5 : 0.33333333 : 1"
       inkscape:vp_z="1 : 0.5 : 1"
       inkscape:vp_y="0 : 1000 : 0"
       inkscape:vp_x="0 : 0.5 : 1"
       sodipodi:type="inkscape:persp3d" />
    <clipPath
       clipPathUnits="userSpaceOnUse"
       id="clipPath3213">
      <path
         d="m 0,0 2384,0 0,3370 L 0,3370 0,0 z"
         id="path3215" />
    </clipPath>
  </defs>
  <sodipodi:namedview
     id="base"
     pagecolor="#ffffff"
     bordercolor="#666666"
     borderopacity="1.0"
     inkscape:pageopacity="0.0"
     inkscape:pageshadow="2"
     inkscape:zoom="2"
     inkscape:cx="169.17264"
     inkscape:cy="166.24438"
     inkscape:document-units="px"
     inkscape:current-layer="layer1"
     showgrid="false"
     inkscape:window-width="1274"
     inkscape:window-height="948"
     inkscape:window-x="0"
     inkscape:window-y="0"
     inkscape:window-maximized="1" />
  <metadata
     id="metadata3890">
    <rdf:RDF>
      <cc:Work
         rdf:about="">
        <dc:format>image/svg+xml</dc:format>
        <dc:type
           rdf:resource="http://purl.org/dc/dcmitype/StillImage" />
        <dc:title></dc:title>
      </cc:Work>
    </rdf:RDF>
  </metadata>
  <g
     inkscape:label="Layer 1"
     inkscape:groupmode="layer"
     id="layer1"
     transform="translate(-339.08028,-236.65064)">
    <path
       d="m 533.36675,549.26452 1.68558,-1.68558 1.66261,-1.71143 1.68558,-1.70855 1.66549,-1.7344 1.63676,-1.73153 1.66549,-1.7344 1.61379,-1.73153 1.63964,-1.75737 1.61667,-1.78034 1.61666,-1.7545 1.59082,-1.78034 1.5937,-1.78034 1.59082,-1.80332 1.57072,-1.80331 1.56785,-1.80332 1.54488,-1.82629 1.54775,-1.82628 1.54488,-1.82629 1.52191,-1.82629 1.5219,-1.85213 1.52191,-1.87223 1.49893,-1.84926 1.49894,-1.87511 1.47596,-1.87223 1.47596,-1.89807 1.47596,-1.87223 1.45012,-1.89808 1.43002,-1.92105 1.45012,-1.91817 1.43001,-1.92105 1.40418,-1.92105 1.43001,-1.92105 1.38121,-1.94402 1.40417,-1.94401 1.35823,-1.96413 1.3812,-1.96986 1.35823,-1.96699 1.35823,-1.96699 1.33526,-1.98997 1.33525,-1.98996 1.31229,-1.98996 1.31228,-1.98997 1.30942,-2.01581 1.28931,-2.01293 1.28644,-2.01581 1.26634,-2.03591 1.26347,-2.03878 1.2405,-2.03591 1.2405,-2.03878 1.24337,-2.05888 1.21752,-2.06175 1.21752,-2.06175 1.19456,-2.05888 1.19455,-2.08473 1.16871,-2.08472 1.17158,-2.08472 1.17158,-2.08473 1.14861,-2.1077 1.12276,-2.10769 1.14861,-2.1077 1.09979,-2.10769 1.12564,-2.13067 1.09979,-2.13067 1.07682,-2.13067 1.07682,-2.13067 1.05385,-2.15651 1.05385,-2.13067 1.05385,-2.15364 1.03087,-2.15651 1.03088,-2.17662 1.00503,-2.15364 1.00791,-2.17948 0.98493,-2.17661 0.98206,-2.17949 0.96196,-2.19958 0.95909,-2.17949 0.95908,-2.19958 0.93899,-2.20246 0.91315,-2.22543 0.91314,-2.19958 0.91314,-2.22543 0.89017,-2.20246 0.89018,-2.22543 0.86432,-2.24553 0.8672,-2.22543 0.84423,-2.2484 0.84136,-2.22543 0.82125,-2.2484 0.81838,-2.24553 0.79829,-2.25127 0.79541,-2.27137 0.79541,-2.2484 0.77244,-2.2685 0.74947,-2.27425 0.74946,-2.27137 0.74947,-2.27137 0.72649,-2.29435 0.70353,-2.27137 0.70065,-2.29435 0.70352,-2.29722 0.68055,-2.29434 0.67768,-2.29435 0.65471,-2.29434 0.63173,-2.32019 0.65758,-2.29435 0.60876,-2.31731"
       style="fill:none;stroke:#231f20;stroke-width:1.4173311;stroke-linecap:butt;stroke-linejoin:miter;stroke-miterlimit:2.61310005;stroke-opacity:1;stroke-dasharray:none"
       id="path3219" />
    <path
       d="m 341.40528,332.03396 0.60819,2.31731 0.6326,2.29435 0.65614,2.32019 0.65499,2.29434 0.67969,2.29435 0.67883,2.29434 0.67969,2.29722 0.70209,2.29435 0.72563,2.27137 0.72592,2.29435 0.74918,2.27137 0.75033,2.27137 0.74946,2.27425 0.77273,2.2685 0.77301,2.2484 0.79513,2.27137 0.82011,2.25127 0.79627,2.24553 0.84365,2.2484 0.84222,2.22543 0.84365,2.2484 0.86576,2.22543 0.8672,2.24553 0.86577,2.22543 0.91314,2.20246 0.89075,2.22543 0.91285,2.19958 0.93669,2.22543 0.93784,2.20246 0.93641,2.19958 0.95908,2.17949 0.98379,2.19958 0.98378,2.17949 0.98378,2.17661 1.00704,2.17948 1.00733,2.15364 1.02973,2.17662 1.03088,2.15651 1.03087,2.15364 1.05328,2.13067 1.07797,2.15651 1.07682,2.13067 1.07682,2.13067 1.10036,2.13067 1.10152,2.13067 1.12391,2.10769 1.12392,2.1077 1.14746,2.10769 1.14746,2.1077 1.171,2.08473 1.14746,2.08472 1.19455,2.08472 1.19484,2.08473 1.19456,2.05888 1.21695,2.06175 1.2181,2.06175 1.21695,2.05888 1.24193,2.03878 1.26404,2.03591 1.2652,2.03878 1.26433,2.03591 1.28759,2.01581 1.28874,2.01293 1.28787,2.01581 1.31114,1.98997 1.33468,1.98996 1.33497,1.98996 1.33469,1.98997 1.35851,1.96699 1.35823,1.96699 1.35852,1.96986 1.38177,1.96413 1.38207,1.94401 1.40417,1.94402 1.40561,1.92105 1.42801,1.92105 1.42887,1.92105 1.42915,1.91817 1.45127,1.92105 1.4527,1.89808 1.4751,1.87223 1.47482,1.89807 1.4751,1.87223 1.49979,1.87511 1.49865,1.84926 1.49836,1.87223 1.52219,1.85213 1.54574,1.82629 1.52219,1.82629 1.54546,1.82628 1.56928,1.82629 1.56929,1.80332 1.56929,1.80331 1.59168,1.80332 1.5914,1.78034 1.59369,1.78034 1.61667,1.7545 1.61666,1.78034 1.6138,1.75737 1.63964,1.73153 1.63963,1.7344 1.66262,1.73153 1.66261,1.7344 1.66261,1.70855 1.68558,1.71143 1.68845,1.68558"
       style="fill:none;stroke:#231f20;stroke-width:1.4173311;stroke-linecap:butt;stroke-linejoin:miter;stroke-miterlimit:2.61310005;stroke-opacity:1;stroke-dasharray:none"
       id="path3221" />
    <path
       d="m 466.69577,549.26452 0.51401,0.514 0.53697,0.51688 0.56282,0.514 0.53984,0.49103 0.56282,0.46806 0.55995,0.4939 0.58579,0.46806 0.58579,0.44508 0.58579,0.46806 0.58579,0.42211 0.60876,0.44509 0.60877,0.42211 0.60876,0.39627 0.63173,0.42212 0.63174,0.37329 0.63173,0.39915 0.63461,0.37329 0.6547,0.3532 0.63174,0.35033 0.65758,0.35319 0.67768,0.32736 0.65757,0.30151 0.67768,0.33022 0.68055,0.30438 0.67768,0.28141 0.68055,0.27854 0.70065,0.25844 0.68056,0.25843 0.70065,0.25844 0.70352,0.23259 0.70352,0.2125 0.7265,0.20962 0.70065,0.21249 0.72649,0.18665 0.70353,0.18665 0.72649,0.16367 0.72362,0.14071 0.7265,0.16367 0.72649,0.11774 0.7265,0.11773 0.74946,0.11773 0.7265,0.0919 0.72362,0.0948 0.74947,0.0689 0.72649,0.0718 0.74947,0.0459 0.74947,0.0459 0.72649,0.023 0.74947,0.023 1.47596,0 0.74947,-0.023 0.72649,-0.023 0.74947,-0.0459 0.72362,-0.0459 0.74947,-0.0718 0.7265,-0.0689 0.74946,-0.0948 0.7265,-0.0919 0.72649,-0.11773 0.7265,-0.11773 0.74659,-0.11774 0.7265,-0.16367 0.70352,-0.14071 0.7265,-0.16367 0.72649,-0.18665 0.72362,-0.18665 0.70353,-0.21249 0.70352,-0.20962 0.70065,-0.2125 0.70352,-0.23259 0.70352,-0.25844 0.70353,-0.25843 0.67768,-0.25844 0.70352,-0.27854 0.67768,-0.28141 0.68055,-0.30438 0.65471,-0.33022 0.67767,-0.30151 0.65758,-0.32736 0.65471,-0.35319 0.65758,-0.35033 0.6547,-0.3532 0.63174,-0.37329 0.63173,-0.39915 0.63461,-0.37329 0.63173,-0.42212 0.60877,-0.39627 0.60876,-0.42211 0.60876,-0.44509 0.58579,-0.42211 0.58579,-0.46806 0.58579,-0.44508 0.55995,-0.46806 0.58579,-0.4939 0.56282,-0.46806 0.53697,-0.49103 0.53985,-0.514 0.53697,-0.51688 0.53985,-0.514"
       style="fill:none;stroke:#231f20;stroke-width:1.4173311;stroke-linecap:butt;stroke-linejoin:miter;stroke-miterlimit:2.61310005;stroke-opacity:1;stroke-dasharray:none"
       id="path3223" />
    <path
       d="m 421.21576,293.81401 -74.86945,20.09203"
       style="fill:none;stroke:#231f20;stroke-width:1.4173311;stroke-linecap:butt;stroke-linejoin:miter;stroke-miterlimit:2.61310005;stroke-opacity:1;stroke-dasharray:none"
       id="path3225" />
    <path
       d="m 383.37113,339.85598 0.63259,-0.63461 0.63145,-0.63173 0.6326,-0.65471 0.60905,-0.65758 0.60933,-0.6547 0.60905,-0.68055 0.5855,-0.67768 0.58436,-0.68055 0.5855,-0.70065 0.56196,-0.70353 0.5631,-0.70352 0.53841,-0.70065 0.53841,-0.72649 0.53841,-0.7265 0.51487,-0.74947 0.51601,-0.74946 0.49132,-0.74947 0.49246,-0.74947 0.46749,-0.74946 0.49246,-0.77244 0.44423,-0.77244 0.44537,-0.79541 0.44537,-0.77244 0.44423,-0.79829 0.42154,-0.79541 0.39828,-0.79541 0.39828,-0.82125 0.39828,-0.81839 0.37444,-0.82125 0.35119,-0.81839 0.37473,-0.81838 0.32851,-0.84423 0.35118,-0.81838 0.32736,-0.84423 0.30409,-0.84135 0.30496,-0.8672 0.28054,-0.84423 0.28141,-0.8672 0.28055,-0.84135 0.25786,-0.8672 0.23461,-0.8672 0.23431,-0.8672 0.23346,-0.8873"
       style="fill:none;stroke:#231f20;stroke-width:1.4173311;stroke-linecap:butt;stroke-linejoin:miter;stroke-miterlimit:2.61310005;stroke-opacity:1;stroke-dasharray:none"
       id="path3227" />
    <path
       d="m 393.16014,301.35463 -0.63259,0.60876 -0.65529,0.65471 -0.60905,0.6346 -0.63259,0.65471 -0.60905,0.68055 -0.5855,0.65471 -0.60905,0.67768 -0.58436,0.70352 -0.56196,0.67768 -0.56195,0.70352 -0.56311,0.70352 -0.53841,0.7265 -0.53841,0.72649 -0.53841,0.72362 -0.51601,0.7265 -0.51486,0.74947 -0.49132,0.74946 -0.49247,0.77244 -0.49131,0.74947 -0.46892,0.77244 -0.44509,0.77244 -0.46777,0.77244 -0.42183,0.79828 -0.44537,0.79541 -0.42068,0.79541 -0.39799,0.79829 -0.39828,0.81838 -0.39828,0.79541 -0.37473,0.82126 -0.37445,0.81838 -0.35119,0.84423 -0.35205,0.81838 -0.32764,0.84423 -0.32764,0.84135 -0.3038,0.84423 -0.30525,0.84136 -0.28026,0.86719 -0.28169,0.84423 -0.28026,0.8672 -0.25815,0.8672 -0.23432,0.86433 -0.2346,0.8672 -0.23432,0.8672"
       style="fill:none;stroke:#231f20;stroke-width:1.4173311;stroke-linecap:butt;stroke-linejoin:miter;stroke-miterlimit:2.61310005;stroke-opacity:1;stroke-dasharray:none"
       id="path3229" />
    <path
       d="M 424.72878,456.83026 380.4907,291.54264"
       style="fill:none;stroke:#231f20;stroke-width:0.53150129;stroke-linecap:butt;stroke-linejoin:miter;stroke-miterlimit:2.61310005;stroke-opacity:1;stroke-dasharray:2.65751228, 2.65751228, 5.31501308, 2.65751228;stroke-dashoffset:0"
       id="path3231" />
    <path
       d="m 373.9333,345.45257 28.66467,-49.69454"
       style="fill:none;stroke:#231f20;stroke-width:0.49606386;stroke-linecap:butt;stroke-linejoin:miter;stroke-miterlimit:2.61310005;stroke-opacity:1;stroke-dasharray:2.48032508, 2.48032508, 4.96063867, 2.48032508;stroke-dashoffset:0"
       id="path3233" />
    <path
       d="m 355.3155,347.37362 74.86917,-20.07193"
       style="fill:none;stroke:#231f20;stroke-width:1.4173311;stroke-linecap:butt;stroke-linejoin:miter;stroke-miterlimit:2.61310005;stroke-opacity:1;stroke-dasharray:none"
       id="path3235" />
    <path
       d="m 625.33295,274.25895 -2.32019,-0.63173 -2.31731,-0.58579 -2.31732,-0.60876 -2.32019,-0.56282 -2.31732,-0.58579 -2.32019,-0.53698 -2.34029,-0.56281 -2.32019,-0.51401 -2.34029,-0.53984 -2.34316,-0.49103 -2.34029,-0.51688 -2.34316,-0.49103 -2.34029,-0.46805 -2.34316,-0.46806 -2.34316,-0.44509 -2.34029,-0.44508 -2.36613,-0.42212 -2.34029,-0.42211 -2.36614,-0.39627 -2.36613,-0.39914 -2.36326,-0.39914 -2.34316,-0.35033 -2.36614,-0.3733 -2.36326,-0.35319 -2.3891,-0.32736 -2.36614,-0.32735 -2.36613,-0.30438 -2.36326,-0.30438 -2.38911,-0.28141 -2.36613,-0.28141 -2.3891,-0.25557 -2.36327,-0.25843 -2.3891,-0.25844 -2.36614,-0.20962 -2.3891,-0.23547 -2.38911,-0.20962 -2.3891,-0.18952 -2.36326,-0.18665 -2.38911,-0.16367 -2.3891,-0.16368 -2.38911,-0.1407 -2.38911,-0.14071 -2.38623,-0.11773 -2.38911,-0.11773 -2.3891,-0.0919 -2.38911,-0.0948 -2.3891,-0.0689 -2.38911,-0.0718 -2.3891,-0.0459 -2.38624,-0.046 -2.3891,-0.0258 -2.41208,-0.0201 -4.77821,0 -2.38911,0.0201 -2.3891,0.0258 -2.38911,0.046 -2.38623,0.0459 -2.38911,0.0718 -2.3891,0.0689 -2.38911,0.0948 -2.3891,0.0919 -2.38911,0.11773 -2.3891,0.11773 -2.38624,0.14071 -2.3891,0.1407 -2.38911,0.16368 -2.3891,0.16367 -2.38911,0.18665 -2.3891,0.18952 -2.36614,0.20962 -2.3891,0.23547 -2.38624,0.20962 -2.36613,0.25844 -2.38824,0.25843 -2.36556,0.25557 -2.3894,0.28141 -2.36441,0.28141 -2.36556,0.30438 -2.38939,0.30438 -2.36441,0.32735 -2.36556,0.32736 -2.3647,0.35319 -2.36555,0.3733 -2.36556,0.35033 -2.3647,0.39914 -2.34201,0.39914 -2.36556,0.39627 -2.34202,0.42211 -2.36584,0.42212 -2.34087,0.44508 -2.36555,0.44509 -2.3423,0.46806 -2.34087,0.46805 -2.34201,0.49103 -2.34201,0.51688 -2.31876,0.49103 -2.34201,0.53984 -2.34086,0.51401 -2.31962,0.56281 -2.31875,0.53698 -2.34086,0.58579 -2.31847,0.56282 -2.31847,0.60876 -2.2952,0.58579 -2.31847,0.63173"
       style="fill:none;stroke:#231f20;stroke-width:1.4173311;stroke-linecap:butt;stroke-linejoin:miter;stroke-miterlimit:2.61310005;stroke-opacity:1;stroke-dasharray:none"
       id="path3237" />
    <path
       d="m 402.48024,306.71863 -9.3201,-5.364"
       style="fill:none;stroke:#231f20;stroke-width:1.4173311;stroke-linecap:butt;stroke-linejoin:miter;stroke-miterlimit:2.61310005;stroke-opacity:1;stroke-dasharray:none"
       id="path3239" />
    <path
       d="m 430.18467,327.30169 -8.96891,-33.48768"
       style="fill:none;stroke:#231f20;stroke-width:1.4173311;stroke-linecap:butt;stroke-linejoin:miter;stroke-miterlimit:2.61310005;stroke-opacity:1;stroke-dasharray:none"
       id="path3241" />
    <path
       d="m 658.65695,332.03396 0.18665,-0.70353 0.18665,-0.72649 0.16368,-0.7265 0.1407,-0.72362 0.14358,-0.72936 0.13783,-0.72363 0.11773,-0.72649 0.0948,-0.74947 0.0919,-0.72649 0.0948,-0.74947 0.0689,-0.7265 0.0488,-0.74946 0.0459,-0.72363 0.0459,-0.74946 0.0258,-0.7265 0.023,-0.74947 0,-0.74946 -0.023,-0.7265 -0.0258,-0.74946 -0.023,-0.74947 -0.0459,-0.7265 -0.0488,-0.74946 -0.0689,-0.72363 -0.0948,-0.74946 -0.0689,-0.7265 -0.11773,-0.74947 -0.11487,-0.72649 -0.11773,-0.72649 -0.1407,-0.7265 -0.14071,-0.72649 -0.16367,-0.72363 -0.16655,-0.72649 -0.18378,-0.7265 -0.18952,-0.70352 -0.20962,-0.70065 -0.21249,-0.7265 -0.2326,-0.70352 -0.23546,-0.70352 -0.25844,-0.70065 -0.25556,-0.68055 -0.25844,-0.70065 -0.28141,-0.68055 -0.30438,-0.67768 -0.30438,-0.68055 -0.30438,-0.67768 -0.32736,-0.65758 -0.32735,-0.65471 -0.35033,-0.65758 -0.35319,-0.6547 -0.3733,-0.65471 -0.37617,-0.63173 -0.3733,-0.63174 -0.39914,-0.63461 -0.42211,-0.60876 -0.39627,-0.60876 -0.42212,-0.60876 -0.44508,-0.60877 -0.44509,-0.58579 -0.44508,-0.58579 -0.46806,-0.58579 -0.46806,-0.58291 -0.46806,-0.56282 -0.4939,-0.56282 -0.49103,-0.53698 -0.514,-0.53984 -0.51687,-0.53985 -0.51401,-0.514 -0.53984,-0.51687 -0.53698,-0.51401 -0.53984,-0.514 -0.55995,-0.4939 -0.56282,-0.46806 -0.56282,-0.46806 -0.58579,-0.46805 -0.58579,-0.46806 -0.58579,-0.44509 -0.60876,-0.42211 -0.58579,-0.44509 -0.60876,-0.42211 -0.63174,-0.39627 -0.60876,-0.39914 -0.63173,-0.39627 -0.65758,-0.37617 -0.63174,-0.3733 -0.6547,-0.3532 -0.65758,-0.35032 -0.65471,-0.32735 -0.65471,-0.33023 -0.68055,-0.32735 -0.6547,-0.30438 -0.67768,-0.30151 -0.70352,-0.28141 -0.68055,-0.25844 -0.70066,-0.28141 -0.68055,-0.25844 -0.70065,-0.23259 -0.70352,-0.23546 -0.70352,-0.20962 -0.7265,-0.2125 -0.70065,-0.18665"
       style="fill:none;stroke:#231f20;stroke-width:1.4173311;stroke-linecap:butt;stroke-linejoin:miter;stroke-miterlimit:2.61310005;stroke-opacity:1;stroke-dasharray:none"
       id="path3243" />
    <path
       d="m 374.72957,274.25895 -0.72563,0.18665 -0.70324,0.2125 -0.70237,0.20962 -0.70209,0.23546 -0.70323,0.23259 -0.70238,0.25844 -0.67969,0.28141 -0.70208,0.25844 -0.67854,0.28141 -0.67998,0.30151 -0.67854,0.30438 -0.65614,0.32735 -0.67854,0.33023 -0.65615,0.32735 -0.65528,0.35032 -0.63259,0.3532 -0.65615,0.3733 -0.63259,0.37617 -0.63145,0.39627 -0.60905,0.39914 -0.6326,0.39627 -0.60818,0.42211 -0.60905,0.44509 -0.58551,0.42211 -0.60905,0.44509 -0.56195,0.46806 -0.58551,0.46805 -0.56195,0.46806 -0.56196,0.46806 -0.56196,0.4939 -0.53955,0.514 -0.53842,0.51401 -0.53841,0.51687 -0.51486,0.514 -0.51601,0.53985 -0.51487,0.53984 -0.49131,0.53698 -0.49247,0.56282 -0.46777,0.56282 -0.46863,0.58291 -0.46777,0.58579 -0.44537,0.58579 -0.44538,0.58579 -0.44537,0.60877 -0.42039,0.60876 -0.42183,0.60876 -0.39828,0.60876 -0.39828,0.63461 -0.37444,0.63174 -0.37474,0.63173 -0.37473,0.65471 -0.3509,0.6547 -0.35119,0.65758 -0.32879,0.65471 -0.32735,0.65758 -0.30409,0.67768 -0.30496,0.68055 -0.30409,0.67768 -0.28141,0.68055 -0.25815,0.70065 -0.25672,0.68055 -0.25815,0.70065 -0.23316,0.70352 -0.23461,0.70352 -0.21077,0.7265 -0.21077,0.70065 -0.18751,0.70352 -0.18722,0.7265 -0.16368,0.72649 -0.16396,0.72363 -0.14128,0.72649 -0.14013,0.7265 -0.14013,0.72649 -0.0945,0.72649 -0.11659,0.74947 -0.0942,0.7265 -0.0695,0.74946 -0.0706,0.72363 -0.0471,0.74946 -0.0471,0.7265 -0.0459,0.74947 -0.0238,0.74946 0,1.47596 0.0238,0.74947 0.0235,0.7265 0.0224,0.74946 0.0471,0.72363 0.0706,0.74946 0.0706,0.7265 0.093,0.74947 0.0942,0.72649 0.093,0.74947 0.11802,0.72649 0.14013,0.72363 0.14013,0.72936 0.14013,0.72362 0.16397,0.7265 0.18837,0.72649 0.18722,0.70353"
       style="fill:none;stroke:#231f20;stroke-width:1.4173311;stroke-linecap:butt;stroke-linejoin:miter;stroke-miterlimit:2.61310005;stroke-opacity:1;stroke-dasharray:none"
       id="path3245" />
    <path
       d="m 355.3155,347.37362 -8.96919,-33.46758"
       style="fill:none;stroke:#231f20;stroke-width:1.4173311;stroke-linecap:butt;stroke-linejoin:miter;stroke-miterlimit:2.61310005;stroke-opacity:1;stroke-dasharray:none"
       id="path3247" />
    <path
       d="m 383.37113,339.85598 -9.32125,-5.38697"
       style="fill:none;stroke:#231f20;stroke-width:1.4173311;stroke-linecap:butt;stroke-linejoin:miter;stroke-miterlimit:2.61310005;stroke-opacity:1;stroke-dasharray:none"
       id="path3249" />
    <path
       d="m 500.01978,385.19443 0,-143.07641"
       style="fill:none;stroke:#231f20;stroke-width:1.062994;stroke-linecap:butt;stroke-linejoin:miter;stroke-miterlimit:2.61310005;stroke-opacity:1;stroke-dasharray:none"
       id="path3251" />
    <path
       d="m 496.72614,242.63777 3.29364,-5.98713 3.29363,5.98713 -6.58727,0"
       style="fill:#231f20;fill-opacity:1;fill-rule:evenodd;stroke:none"
       id="path3253" />
    <path
       d="m 500.01978,385.19443 160.49792,0"
       style="fill:none;stroke:#231f20;stroke-width:1.062994;stroke-linecap:butt;stroke-linejoin:miter;stroke-miterlimit:2.61310005;stroke-opacity:1;stroke-dasharray:none"
       id="path3255" />
    <path
       d="m 660.00082,381.90079 5.98713,3.29364 -5.98713,3.29076 0,-6.5844"
       style="fill:#231f20;fill-opacity:1;fill-rule:evenodd;stroke:none"
       id="path3257" />
    <path
       d="m 484.86676,474.67676 -24.4711,24.51705"
       style="fill:none;stroke:#231f20;stroke-width:1.4173311;stroke-linecap:butt;stroke-linejoin:miter;stroke-miterlimit:2.61310005;stroke-opacity:1;stroke-dasharray:none"
       id="path3259" />
    <path
       d="m 528.64134,514.34683 -71.3623,0"
       style="fill:none;stroke:#231f20;stroke-width:0.59288704;stroke-linecap:butt;stroke-linejoin:miter;stroke-miterlimit:2.61310005;stroke-opacity:1;stroke-dasharray:2.96444158, 2.96444158, 5.92887035, 2.96444158;stroke-dashoffset:0"
       id="path3261" />
    <path
       d="m 480.9098,519.7338 0.8672,0.25556 0.89017,0.23547 0.86433,0.20962 0.8672,0.21249 0.89017,0.18665 0.8672,0.18665 0.89017,0.18665 0.8873,0.16368 0.89305,0.14357 0.8873,0.13783 0.89017,0.11774 0.89017,0.11773 0.89017,0.11773 0.91314,0.0948 0.89018,0.0689 0.89017,0.0689 0.91314,0.0718 0.89017,0.046 0.89017,0.023 0.91315,0.023 0.89017,0.0258 0.91314,0 0.89017,-0.0258 0.91315,-0.023 0.89017,-0.023 0.89017,-0.046 0.91314,-0.0718 0.89018,-0.0689 0.8873,-0.0689 0.91314,-0.0948 0.89304,-0.11773 0.8873,-0.11773 0.89017,-0.11774 0.89018,-0.13783 0.89017,-0.14357 0.89017,-0.16368 0.89017,-0.18665 0.8672,-0.18665 0.89017,-0.18665 0.86433,-0.21249 0.8672,-0.20962 0.89017,-0.23547 0.8672,-0.25556"
       style="fill:none;stroke:#231f20;stroke-width:1.4173311;stroke-linecap:butt;stroke-linejoin:miter;stroke-miterlimit:2.61310005;stroke-opacity:1;stroke-dasharray:none"
       id="path3263" />
    <path
       d="m 519.15272,508.98282 -0.8672,-0.25556 -0.89017,-0.23547 -0.8672,-0.21249 -0.86433,-0.20962 -0.89017,-0.18665 -0.8672,-0.18665 -0.89017,-0.18665 -0.89017,-0.16367 -0.89017,-0.14358 -0.89018,-0.13783 -0.89017,-0.11773 -0.8873,-0.11774 -0.89304,-0.11773 -0.91314,-0.0919 -0.8873,-0.0718 -0.89018,-0.0689 -0.91314,-0.0718 -0.89017,-0.0459 -0.89017,-0.023 -0.91315,-0.023 -0.89017,-0.0258 -0.91314,0 -0.89017,0.0258 -0.91315,0.023 -0.89017,0.023 -0.89017,0.0459 -0.91314,0.0718 -0.89017,0.0689 -0.89018,0.0718 -0.91314,0.0919 -0.89017,0.11773 -0.89017,0.11774 -0.89017,0.11773 -0.8873,0.13783 -0.89305,0.14358 -0.8873,0.16367 -0.89017,0.18665 -0.8672,0.18665 -0.89017,0.18665 -0.8672,0.20962 -0.86433,0.21249 -0.89017,0.23547 -0.8672,0.25556"
       style="fill:none;stroke:#231f20;stroke-width:1.4173311;stroke-linecap:butt;stroke-linejoin:miter;stroke-miterlimit:2.61310005;stroke-opacity:1;stroke-dasharray:none"
       id="path3265" />
    <path
       d="m 460.39566,499.19381 54.79723,54.84605"
       style="fill:none;stroke:#231f20;stroke-width:1.4173311;stroke-linecap:butt;stroke-linejoin:miter;stroke-miterlimit:2.61310005;stroke-opacity:1;stroke-dasharray:none"
       id="path3267" />
    <path
       d="M 539.66687,529.52281 484.86676,474.67676"
       style="fill:none;stroke:#231f20;stroke-width:1.4173311;stroke-linecap:butt;stroke-linejoin:miter;stroke-miterlimit:2.61310005;stroke-opacity:1;stroke-dasharray:none"
       id="path3269" />
    <path
       d="m 519.15272,508.98282 0,10.75098"
       style="fill:none;stroke:#231f20;stroke-width:1.4173311;stroke-linecap:butt;stroke-linejoin:miter;stroke-miterlimit:2.61310005;stroke-opacity:1;stroke-dasharray:none"
       id="path3271" />
    <path
       d="m 480.9098,508.98282 0,10.75098"
       style="fill:none;stroke:#231f20;stroke-width:1.4173311;stroke-linecap:butt;stroke-linejoin:miter;stroke-miterlimit:2.61310005;stroke-opacity:1;stroke-dasharray:none"
       id="path3273" />
    <path
       d="m 539.66687,529.52281 -24.47398,24.51705"
       style="fill:none;stroke:#231f20;stroke-width:1.4173311;stroke-linecap:butt;stroke-linejoin:miter;stroke-miterlimit:2.61310005;stroke-opacity:1;stroke-dasharray:none"
       id="path3275" />
    <path
       d="m 585.02828,353.57611 33.46471,8.97063"
       style="fill:none;stroke:#231f20;stroke-width:1.4173311;stroke-linecap:butt;stroke-linejoin:miter;stroke-miterlimit:2.61310005;stroke-opacity:1;stroke-dasharray:none"
       id="path3277" />
    <path
       d="m 597.46484,295.75803 28.66352,49.69454"
       style="fill:none;stroke:#231f20;stroke-width:0.49606386;stroke-linecap:butt;stroke-linejoin:miter;stroke-miterlimit:2.61310005;stroke-opacity:1;stroke-dasharray:2.48032508, 2.48032508, 4.96063867, 2.48032508;stroke-dashoffset:0"
       id="path3279" />
    <path
       d="m 626.01063,334.46901 -0.23259,-0.8672 -0.23547,-0.8672 -0.25843,-0.86433 -0.25557,-0.8672 -0.25844,-0.8672 -0.28141,-0.8672 -0.2814,-0.84422 -0.30439,-0.84136 -0.32735,-0.84423 -0.30438,-0.84135 -0.35033,-0.84423 -0.35319,-0.81838 -0.35033,-0.84423 -0.35032,-0.81838 -0.39915,-0.82126 -0.37616,-0.81838 -0.39627,-0.79541 -0.42212,-0.79829 -0.42211,-0.81838 -0.42212,-0.77244 -0.44221,-0.79828 -0.44509,-0.77244 -0.47093,-0.77244 -0.46805,-0.77244 -0.46806,-0.77244 -0.49103,-0.74947 -0.49103,-0.74946 -0.51687,-0.74947 -0.51401,-0.7265 -0.53697,-0.72362 -0.53985,-0.72649 -0.53984,-0.7265 -0.56282,-0.70352 -0.55995,-0.70352 -0.58579,-0.70065 -0.58579,-0.68055 -0.58579,-0.67768 -0.60876,-0.68055 -0.60876,-0.65471 -0.60877,-0.65471 -0.63173,-0.6346 -0.63461,-0.65471 -0.62886,-0.63174"
       style="fill:none;stroke:#231f20;stroke-width:1.4173311;stroke-linecap:butt;stroke-linejoin:miter;stroke-miterlimit:2.61310005;stroke-opacity:1;stroke-dasharray:none"
       id="path3281" />
    <path
       d="m 597.5797,306.71863 0.21249,0.86433 0.23547,0.89017 0.25556,0.8672 0.25844,0.84422 0.25844,0.86433 0.27854,0.8672 0.30725,0.84423 0.30151,0.84135 0.30725,0.8672 0.32735,0.81839 0.32736,0.84422 0.35032,0.84423 0.3532,0.81838 0.3733,0.81839 0.37617,0.82125 0.39627,0.81839 0.39914,0.79828 0.39627,0.81838 0.42211,0.79541 0.42212,0.79829 0.44508,0.77244 0.44509,0.77244 0.46805,0.79541 0.46806,0.74946 0.49103,0.77244 0.4939,0.74947 0.49103,0.74947 0.51401,0.74946 0.51687,0.7265 0.514,0.74947 0.53985,0.70352 0.56282,0.72362 0.55994,0.70352 0.56282,0.70353 0.56282,0.70065 0.58579,0.68055 0.58292,0.67768 0.61163,0.68055 0.60876,0.6547 0.63174,0.65758 0.60876,0.65471 0.63174,0.63173 0.6547,0.63461"
       style="fill:none;stroke:#231f20;stroke-width:1.4173311;stroke-linecap:butt;stroke-linejoin:miter;stroke-miterlimit:2.61310005;stroke-opacity:1;stroke-dasharray:none"
       id="path3283" />
    <path
       d="m 618.49299,362.54674 20.04896,-74.91511"
       style="fill:none;stroke:#231f20;stroke-width:1.4173311;stroke-linecap:butt;stroke-linejoin:miter;stroke-miterlimit:2.61310005;stroke-opacity:1;stroke-dasharray:none"
       id="path3285" />
    <path
       d="m 605.09734,278.63802 -20.06906,74.93809"
       style="fill:none;stroke:#231f20;stroke-width:1.4173311;stroke-linecap:butt;stroke-linejoin:miter;stroke-miterlimit:2.61310005;stroke-opacity:1;stroke-dasharray:none"
       id="path3287" />
    <path
       d="m 597.5797,306.71863 9.32383,-5.38698"
       style="fill:none;stroke:#231f20;stroke-width:1.4173311;stroke-linecap:butt;stroke-linejoin:miter;stroke-miterlimit:2.61310005;stroke-opacity:1;stroke-dasharray:none"
       id="path3289" />
    <path
       d="m 616.68967,339.85598 9.32096,-5.38697"
       style="fill:none;stroke:#231f20;stroke-width:1.4173311;stroke-linecap:butt;stroke-linejoin:miter;stroke-miterlimit:2.61310005;stroke-opacity:1;stroke-dasharray:none"
       id="path3291" />
    <path
       d="m 605.09734,278.63802 33.44461,8.99361"
       style="fill:none;stroke:#231f20;stroke-width:1.4173311;stroke-linecap:butt;stroke-linejoin:miter;stroke-miterlimit:2.61310005;stroke-opacity:1;stroke-dasharray:none"
       id="path3293" />
    <path
       d="m 405.59498,439.5236 27.07212,-7.2592"
       style="fill:none;stroke:#231f20;stroke-width:1.4173311;stroke-linecap:butt;stroke-linejoin:miter;stroke-miterlimit:2.61310005;stroke-opacity:1;stroke-dasharray:none"
       id="path3295" />
    <path
       d="M 432.6671,432.2644 406.27495,333.71954"
       style="fill:none;stroke:#231f20;stroke-width:1.4173311;stroke-linecap:butt;stroke-linejoin:miter;stroke-miterlimit:2.61310005;stroke-opacity:1;stroke-dasharray:none"
       id="path3297" />
    <path
       d="M 405.59498,439.5236 379.20283,340.97874"
       style="fill:none;stroke:#231f20;stroke-width:1.4173311;stroke-linecap:butt;stroke-linejoin:miter;stroke-miterlimit:2.61310005;stroke-opacity:1;stroke-dasharray:none"
       id="path3299" />
    <path
       d="m 594.25448,439.8768 -72.08092,72.15271"
       style="fill:none;stroke:#231f20;stroke-width:1.4173311;stroke-linecap:butt;stroke-linejoin:miter;stroke-miterlimit:2.61310005;stroke-opacity:1;stroke-dasharray:none"
       id="path3301" />
    <path
       d="m 574.44386,420.04033 -72.0838,72.15271"
       style="fill:none;stroke:#231f20;stroke-width:1.4173311;stroke-linecap:butt;stroke-linejoin:miter;stroke-miterlimit:2.61310005;stroke-opacity:1;stroke-dasharray:none"
       id="path3303" />
    <path
       d="M 594.25448,439.8768 574.44386,420.04033"
       style="fill:none;stroke:#231f20;stroke-width:1.4173311;stroke-linecap:butt;stroke-linejoin:miter;stroke-miterlimit:2.61310005;stroke-opacity:1;stroke-dasharray:none"
       id="path3305" />
    <path
       d="m 500.2294,276.15703 98.45297,26.41512"
       style="fill:none;stroke:#231f20;stroke-width:1.4173311;stroke-linecap:butt;stroke-linejoin:miter;stroke-miterlimit:2.61310005;stroke-opacity:1;stroke-dasharray:none"
       id="path3307" />
    <path
       d="m 492.97019,303.2527 98.47594,26.41512"
       style="fill:none;stroke:#231f20;stroke-width:1.4173311;stroke-linecap:butt;stroke-linejoin:miter;stroke-miterlimit:2.61310005;stroke-opacity:1;stroke-dasharray:none"
       id="path3309" />
    <path
       d="m 500.2294,276.15703 -7.25921,27.09567"
       style="fill:none;stroke:#231f20;stroke-width:1.4173311;stroke-linecap:butt;stroke-linejoin:miter;stroke-miterlimit:2.61310005;stroke-opacity:1;stroke-dasharray:none"
       id="path3311" />
    <path
       d="M 500.01978,385.19443 611.7966,320.6053"
       style="fill:none;stroke:#231f20;stroke-width:0.62469083;stroke-linecap:butt;stroke-linejoin:miter;stroke-miterlimit:2.61310005;stroke-opacity:1;stroke-dasharray:none"
       id="path3313" />
    <path
       d="m 500.01978,385.19443 0,129.1524"
       style="fill:none;stroke:#231f20;stroke-width:0.62469083;stroke-linecap:butt;stroke-linejoin:miter;stroke-miterlimit:2.61310005;stroke-opacity:1;stroke-dasharray:none"
       id="path3315" />
    <path
       d="M 500.01978,385.19443 388.26506,320.6053"
       style="fill:none;stroke:#231f20;stroke-width:0.62469083;stroke-linecap:butt;stroke-linejoin:miter;stroke-miterlimit:2.61310005;stroke-opacity:1;stroke-dasharray:none"
       id="path3317" />
    <g
       id="g4508">
      <path
         id="path3321"
         style="fill:#231f20;fill-opacity:1;fill-rule:evenodd;stroke:none"
         d="m 610.3992,324.07272 0,-0.046 -0.023,-0.0488 -0.023,-0.0201 -0.023,-0.0259 -0.0488,-0.023 -0.0689,0 -0.0459,0.023 -0.023,0.0259 -0.0258,0.0201 -0.023,0.0488 0,0.0689 0.023,0.0488 0.0258,0.023 0.023,0.023 0.0459,0.023 0.0689,0 0.0488,-0.023 0.023,-0.023 0.023,-0.023 0.023,-0.0488 0,-0.023" />
      <g
         transform="matrix(1.3881185,0,0,1.3881185,-237.54992,-124.29185)"
         id="g4504">
        <path
           d="m 607.65013,322.99441 0.11773,0.20962 0.11773,0.18665 0.1407,0.18952 0.16368,0.18665 0.16368,0.16367 0.16367,0.16368 0.16368,0.16368 0.18665,0.1407 0.18952,0.14071 0.20962,0.1407 0.18665,0.11486 0.21249,0.0948 0.20962,0.11774 0.23547,0.0689 0.20962,0.0948 0.23259,0.0689 0.23547,0.0488 0.20962,0.046 0.23546,0.023 0.23547,0.0258 0.70065,0 0.23546,-0.0258 0.23547,-0.0459 0.23259,-0.046 0.2326,-0.0488 0.23546,-0.0689 0.21249,-0.0948 0.20962,-0.0919 0.20962,-0.0948 0.20963,-0.11773"
           style="fill:none;stroke:#231f20;stroke-width:0.62469083;stroke-linecap:butt;stroke-linejoin:miter;stroke-miterlimit:2.61310005;stroke-opacity:1;stroke-dasharray:none"
           id="path3319" />
        <path
           d="m 610.91217,322.99154 0,-0.046 -0.023,-0.0488 -0.023,-0.0201 -0.023,-0.0259 -0.0488,-0.023 -0.0689,0 -0.0459,0.023 -0.023,0.0259 -0.0258,0.0201 -0.023,0.0488 0,0.0689 0.023,0.0488 0.0258,0.023 0.023,0.023 0.0459,0.023 0.0689,0 0.0488,-0.023 0.023,-0.023 0.023,-0.023 0.023,-0.0488 0,-0.023 z"
           style="fill:none;stroke:#231f20;stroke-width:0.27000135;stroke-linecap:butt;stroke-linejoin:miter;stroke-miterlimit:2.61310005;stroke-opacity:1;stroke-dasharray:none"
           id="path3323" />
      </g>
    </g>
    <g
       id="g4520">
      <g
         id="g4516">
        <path
           d="m 391.36152,319.50873 0,-0.023 -0.0235,-0.0488 -0.0236,-0.023 -0.0236,-0.023 -0.0471,-0.023 -0.0695,0 -0.0236,0.023 -0.0471,0.023 -0.0235,0.023 0,0.0488 -0.0236,0.023 0.0236,0.0459 0,0.023 0.0235,0.0459 0.0471,0.0258 0.0236,0 0.046,0.023 0.0235,-0.023 0.0471,0 0.0236,-0.0258 0.0236,-0.0459 0.0235,-0.023 0,-0.0459"
           style="fill:#231f20;fill-opacity:1;fill-rule:evenodd;stroke:none"
           id="path3325" />
        <path
           d="m 391.34585,319.48573 0,-0.0274 -0.0281,-0.0583 -0.0281,-0.0274 -0.0282,-0.0274 -0.0562,-0.0274 -0.083,0 -0.0281,0.0274 -0.0562,0.0274 -0.0281,0.0274 0,0.0583 -0.0282,0.0274 0.0282,0.0548 0,0.0274 0.0281,0.0548 0.0562,0.0308 0.0281,0 0.055,0.0274 0.0281,-0.0274 0.0562,0 0.0282,-0.0308 0.0281,-0.0548 0.0281,-0.0274 0,-0.0548 z"
           style="fill:none;stroke:#231f20;stroke-width:0.32235873;stroke-linecap:butt;stroke-linejoin:miter;stroke-miterlimit:2.61310005;stroke-opacity:1;stroke-dasharray:none"
           id="path3327" />
      </g>
      <path
         id="path3329"
         style="fill:none;stroke:#231f20;stroke-width:0.82657367;stroke-linecap:butt;stroke-linejoin:miter;stroke-miterlimit:2.61310005;stroke-opacity:1;stroke-dasharray:none"
         d="m 393.63343,323.51846 0.15465,-0.28116 0.12464,-0.27737 0.12306,-0.28117 0.12464,-0.27736 0.092,-0.31156 0.0623,-0.30777 0.0623,-0.31155 0.0623,-0.27736 0.0315,-0.31157 0,-0.30776 0.0296,-0.34196 -0.0296,-0.30776 -0.0315,-0.31155 -0.0311,-0.31157 -0.0623,-0.27736 -0.0623,-0.31157 -0.092,-0.30776 -0.12464,-0.27736 -0.0934,-0.31155 -0.15427,-0.28118 -0.12464,-0.27736 -0.15465,-0.24697 -0.18542,-0.27736 -0.18542,-0.25077 -0.18692,-0.24697 -0.21696,-0.21657 -0.21658,-0.21657 -0.21656,-0.21658 -0.24811,-0.21656 -0.24774,-0.18619 -0.24772,-0.15577 -0.27927,-0.18619" />
    </g>
    <path
       d="m 498.49787,512.66124 -0.0258,-0.0488 0,-0.023 -0.023,-0.0459 -0.0459,-0.023 -0.14071,0 -0.0459,0.023 -0.023,0.0459 0,0.14071 0.023,0.0459 0.0459,0.0258 0.023,0 0.0488,0.023 0.046,-0.023 0.023,0 0.0459,-0.0258 0.023,-0.0459 0,-0.023 0.0258,-0.0459"
       style="fill:#231f20;fill-opacity:1;fill-rule:evenodd;stroke:none"
       id="path3331" />
    <g
       id="g4500"
       transform="matrix(1.3552907,0,0,1.3552907,-177.76333,-182.85364)">
      <path
         id="path3333"
         style="fill:none;stroke:#231f20;stroke-width:0.27000135;stroke-linecap:butt;stroke-linejoin:miter;stroke-miterlimit:2.61310005;stroke-opacity:1;stroke-dasharray:none"
         d="m 498.49787,512.66124 -0.0258,-0.0488 0,-0.023 -0.023,-0.0459 -0.0459,-0.023 -0.14071,0 -0.0459,0.023 -0.023,0.0459 0,0.14071 0.023,0.0459 0.0459,0.0258 0.023,0 0.0488,0.023 0.046,-0.023 0.023,0 0.0459,-0.0258 0.023,-0.0459 0,-0.023 0.0258,-0.0459 z" />
      <path
         id="path3335"
         style="fill:none;stroke:#231f20;stroke-width:0.62469083;stroke-linecap:butt;stroke-linejoin:miter;stroke-miterlimit:2.61310005;stroke-opacity:1;stroke-dasharray:none"
         d="m 500.01978,509.56861 -0.23547,0 -0.23259,0.023 -0.23547,0.023 -0.20962,0.0488 -0.23546,0.046 -0.23547,0.0488 -0.20962,0.0919 -0.23259,0.0718 -0.21249,0.0919 -0.20963,0.11773 -0.21249,0.11773 -0.18665,0.11774 -0.18665,0.13783 -0.18665,0.1407 -0.18952,0.16368 -0.16367,0.16655 -0.16368,0.16368 -0.16368,0.18665 -0.1407,0.16367 -0.1407,0.20962 -0.11487,0.18952 -0.11773,0.20962 -0.11773,0.2125 -0.0948,0.20962 -0.0689,0.20962 -0.0718,0.23546 -0.0689,0.2326 -0.046,0.23546 -0.0488,0.20962 -0.023,0.23547 -0.023,0.23259 0,0.23547" />
    </g>
    <path
       d="M 623.45785,276.97541 594.48994,385.19443"
       style="fill:none;stroke:#231f20;stroke-width:0.27000135;stroke-linecap:butt;stroke-linejoin:miter;stroke-miterlimit:2.61310005;stroke-opacity:1;stroke-dasharray:none"
       id="path3337" />
    <path
       d="m 412.69079,448.84456 18.47766,-4.96486"
       style="fill:none;stroke:#231f20;stroke-width:1.4173311;stroke-linecap:butt;stroke-linejoin:miter;stroke-miterlimit:2.61310005;stroke-opacity:1;stroke-dasharray:none"
       id="path3339" />
    <path
       d="m 431.16845,443.8797 -2.80978,-10.46957"
       style="fill:none;stroke:#231f20;stroke-width:1.4173311;stroke-linecap:butt;stroke-linejoin:miter;stroke-miterlimit:2.61310005;stroke-opacity:1;stroke-dasharray:none"
       id="path3341" />
    <path
       d="m 412.69079,448.84456 -2.78624,-10.48967"
       style="fill:none;stroke:#231f20;stroke-width:1.4173311;stroke-linecap:butt;stroke-linejoin:miter;stroke-miterlimit:2.61310005;stroke-opacity:1;stroke-dasharray:none"
       id="path3343" />
    <path
       d="M 599.66443,414.63039 478.77913,535.63341"
       style="fill:none;stroke:#231f20;stroke-width:0.53150129;stroke-linecap:butt;stroke-linejoin:miter;stroke-miterlimit:2.61310005;stroke-opacity:1;stroke-dasharray:2.65751228, 2.65751228, 5.31501308, 2.65751228;stroke-dashoffset:0"
       id="path3345" />
    <path
       d="M 598.75128,429.05691 585.2379,415.54353"
       style="fill:none;stroke:#231f20;stroke-width:1.4173311;stroke-linecap:butt;stroke-linejoin:miter;stroke-miterlimit:2.61310005;stroke-opacity:1;stroke-dasharray:none"
       id="path3347" />
    <path
       d="m 585.2379,415.54353 -7.65547,7.65835"
       style="fill:none;stroke:#231f20;stroke-width:1.4173311;stroke-linecap:butt;stroke-linejoin:miter;stroke-miterlimit:2.61310005;stroke-opacity:1;stroke-dasharray:none"
       id="path3349" />
    <path
       d="m 598.75128,429.05691 -7.65834,7.65547"
       style="fill:none;stroke:#231f20;stroke-width:1.4173311;stroke-linecap:butt;stroke-linejoin:miter;stroke-miterlimit:2.61310005;stroke-opacity:1;stroke-dasharray:none"
       id="path3351" />
    <path
       d="m 475.68651,284.09391 165.12681,44.2846"
       style="fill:none;stroke:#231f20;stroke-width:0.53150129;stroke-linecap:butt;stroke-linejoin:miter;stroke-miterlimit:2.61310005;stroke-opacity:1;stroke-dasharray:2.65751228, 2.65751228, 5.31501308, 2.65751228;stroke-dashoffset:0"
       id="path3353" />
    <path
       d="m 488.61409,277.65596 -4.94188,18.47537"
       style="fill:none;stroke:#231f20;stroke-width:1.4173311;stroke-linecap:butt;stroke-linejoin:miter;stroke-miterlimit:2.61310005;stroke-opacity:1;stroke-dasharray:none"
       id="path3355" />
    <path
       d="m 483.67221,296.13133 10.46956,2.81122"
       style="fill:none;stroke:#231f20;stroke-width:1.4173311;stroke-linecap:butt;stroke-linejoin:miter;stroke-miterlimit:2.61310005;stroke-opacity:1;stroke-dasharray:none"
       id="path3357" />
    <path
       d="m 488.61409,277.65596 10.4667,2.80835"
       style="fill:none;stroke:#231f20;stroke-width:1.4173311;stroke-linecap:butt;stroke-linejoin:miter;stroke-miterlimit:2.61310005;stroke-opacity:1;stroke-dasharray:none"
       id="path3359" />
    <path
       d="m 469.11379,520.44397 -0.0193,0.24418 0.003,0.11437 -0.0193,0.24419 0.002,0.12511 0.005,0.12852 0.003,0.11436 0.002,0.1287 0.004,0.11436 0.002,0.12511 0.006,0.1178 0.0134,0.12457 0.002,0.11795 0.0172,0.12438 0.0178,0.11725 0.0143,0.11377 0.0172,0.12441 0.0139,0.11742 0.0143,0.11379 0.0286,0.1274 0.0143,0.1138 0.0299,0.11309 0.0178,0.11724 0.025,0.124 0.0295,0.11668 0.0299,0.1131 0.0414,0.11252 0.0259,0.11322 0.0295,0.11667 0.0414,0.11252 0.0299,0.1131 0.0412,0.11611 0.0414,0.11252 0.0422,0.10167 0.0373,0.11631 0.0414,0.11253 0.0532,0.11195 0.0463,0.10156 0.0527,0.11556 0.0423,0.10167 0.0532,0.11195 0.0541,0.10113 0.054,0.10114 0.0529,0.11554 0.0541,0.10113 0.0541,0.10114 0.0695,0.10049 0.0541,0.10113 0.0657,0.10059 0.0695,0.10048 0.054,0.10113 0.0695,0.10049 0.0666,0.0898 0.0657,0.10059 0.0812,0.0998 0.0666,0.0898 0.0695,0.10049 0.0783,0.0892 0.0704,0.0896 0.0783,0.0893 0.0812,0.0998 0.0783,0.0893 0.0821,0.0891 0.0833,0.0747 0.0783,0.0893 0.082,0.0892 0.0821,0.0891 0.0911,0.0744 0.0821,0.0891 0.0947,0.0777 0.0793,0.0749 0.0939,0.0885 0.0947,0.0778 0.0947,0.0777 0.0949,0.0742 0.0947,0.0777 0.0957,0.0635 0.0947,0.0777 0.0911,0.0744 0.10713,0.0663 0.0947,0.0777 0.0958,0.0635 0.1075,0.0629 0.10726,0.0663 0.0958,0.0635 0.10749,0.0629 0.10727,0.0663 0.1075,0.0629 0.11208,0.0518 0.10726,0.0663 0.10835,0.052 0.10749,0.0629 0.1081,0.0557 0.10835,0.0519 0.11993,0.0514 0.10836,0.0519 0.12476,0.0405 0.10834,0.052 0.11995,0.0515 0.10918,0.0411 0.12084,0.0407 0.1239,0.0514 0.10919,0.0413 0.12083,0.0407 0.12477,0.0405 0.12084,0.0407 0.1217,0.0299 0.12504,0.037 0.12169,0.0299 0.12084,0.0407 0.12167,0.0299 0.12564,0.0297 0.12196,0.0265 0.12562,0.0297 0.12283,0.0155"
       style="fill:none;stroke:#231f20;stroke-width:1.38113594;stroke-linecap:butt;stroke-linejoin:miter;stroke-miterlimit:2.61310005;stroke-opacity:1;stroke-dasharray:none"
       id="path3361" />
    <path
       d="m 472.44333,520.71776 -3.2044,-6.3271 -4.18576,6.70159 7.39016,-0.37449"
       style="fill:#231f20;fill-opacity:1;fill-rule:evenodd;stroke:none"
       id="path3363" />
    <path
       d="m 477.38149,526.84298 4.85057,5.28276 -8.16295,0.9455 3.31238,-6.22826"
       style="fill:#231f20;fill-opacity:1;fill-rule:evenodd;stroke:none"
       id="path3365"
       inkscape:transform-center-x="-1.3889598"
       inkscape:transform-center-y="-1.5152288" />
    <path
       d="m 487.03189,237.30822 2.60447,0 0,0.22685 -0.12635,0 c -0.18378,0 -0.32161,0.0402 -0.4135,0.12061 -0.0919,0.0775 -0.13783,0.17516 -0.13783,0.29576 0,0.15794 0.0689,0.37904 0.20387,0.65758 l 1.35823,2.81983 1.25199,-3.08688 c 0.0689,-0.16942 0.10337,-0.3331 0.10337,-0.49677 0,-0.0718 -0.0144,-0.12635 -0.0431,-0.16368 -0.0316,-0.0431 -0.0833,-0.0804 -0.14932,-0.10625 -0.0718,-0.0287 -0.19239,-0.0402 -0.36756,-0.0402 l 0,-0.22685 1.81768,0 0,0.22685 c -0.14932,0.0172 -0.26705,0.0488 -0.34746,0.0976 -0.0804,0.0488 -0.16942,0.14071 -0.26992,0.27567 -0.0373,0.0574 -0.10625,0.21249 -0.20675,0.46806 l -2.27424,5.57936 c -0.22111,0.53985 -0.51113,0.95048 -0.86433,1.22614 -0.35894,0.27854 -0.69778,0.41637 -1.03088,0.41637 -0.23833,0 -0.43647,-0.0718 -0.59153,-0.20962 -0.15219,-0.13783 -0.22972,-0.29576 -0.22972,-0.47667 0,-0.16942 0.0546,-0.30725 0.16655,-0.41063 0.11199,-0.10337 0.26418,-0.15793 0.46231,-0.15793 0.13209,0 0.31587,0.0459 0.54559,0.13496 0.16368,0.0632 0.26705,0.0948 0.30725,0.0948 0.12061,0 0.25557,-0.066 0.39914,-0.18952 0.14358,-0.12922 0.29003,-0.3733 0.43648,-0.73511 l 0.39914,-0.9677 -2.01007,-4.21827 c -0.0603,-0.12634 -0.15793,-0.28428 -0.29289,-0.46805 -0.10338,-0.14358 -0.18665,-0.24121 -0.24983,-0.28716 -0.0948,-0.066 -0.24407,-0.12347 -0.45082,-0.17229 l 0,-0.22685"
       style="fill:#231f20;fill-opacity:1;fill-rule:evenodd;stroke:none"
       id="path3403" />
    <path
       d="m 660.6986,392.48522 2.63319,0 0,0.22685 c -0.16655,0 -0.28428,0.0258 -0.3532,0.0861 -0.066,0.0546 -0.1005,0.12922 -0.1005,0.22398 0,0.0976 0.0718,0.24982 0.21536,0.4537 0.0431,0.0632 0.11199,0.16655 0.19814,0.30151 l 0.39914,0.63748 0.45657,-0.63748 c 0.2929,-0.39914 0.43934,-0.65471 0.43934,-0.76095 0,-0.0862 -0.0344,-0.15506 -0.1005,-0.21824 -0.0718,-0.0574 -0.18378,-0.0861 -0.33884,-0.0861 l 0,-0.22685 1.89233,0 0,0.22685 c -0.19813,0.0115 -0.37042,0.066 -0.51687,0.16367 -0.20101,0.13784 -0.4738,0.44222 -0.81838,0.90166 l -0.76383,1.02226 1.39269,2.00145 c 0.34171,0.49103 0.58579,0.7868 0.73224,0.8873 0.14644,0.10051 0.33309,0.15507 0.56856,0.16942 l 0,0.21824 -2.63893,0 0,-0.21824 c 0.18378,0 0.32448,-0.0431 0.42786,-0.12347 0.0775,-0.0546 0.11486,-0.13209 0.11486,-0.22398 0,-0.0948 -0.12922,-0.3331 -0.39053,-0.70927 l -0.81551,-1.19742 -0.89879,1.19742 c -0.27853,0.36756 -0.4135,0.59154 -0.4135,0.65758 0,0.0976 0.046,0.18665 0.13497,0.26705 0.0919,0.0804 0.22972,0.12348 0.41349,0.13209 l 0,0.21824 -1.82341,0 0,-0.21824 c 0.14357,-0.0201 0.26992,-0.0718 0.38191,-0.15506 0.15506,-0.11486 0.41637,-0.41637 0.78105,-0.90166 l 1.17446,-1.55636 -1.06247,-1.53914 c -0.30151,-0.43934 -0.5341,-0.71501 -0.70065,-0.82699 -0.16367,-0.10912 -0.37042,-0.16655 -0.62025,-0.16655 l 0,-0.22685"
       style="fill:#231f20;fill-opacity:1;fill-rule:evenodd;stroke:none"
       id="path3405" />
    <text
       xml:space="preserve"
       style="font-size:10.11229229px;font-style:normal;font-weight:normal;fill:#000000;fill-opacity:1;stroke:none;font-family:Bitstream Vera Sans"
       x="477.08835"
       y="505.09686"
       id="text4492"
       transform="scale(0.94837483,1.0544354)"><tspan
         sodipodi:role="line"
         id="tspan4494"
         x="477.08835"
         y="505.09686">45°</tspan></text>
  </g>
</svg>
