<?xml version="1.0" encoding="UTF-8" standalone="no"?>
<!-- Created with Inkscape (http://www.inkscape.org/) -->

<svg
   xmlns:dc="http://purl.org/dc/elements/1.1/"
   xmlns:cc="http://creativecommons.org/ns#"
   xmlns:rdf="http://www.w3.org/1999/02/22-rdf-syntax-ns#"
   xmlns:svg="http://www.w3.org/2000/svg"
   xmlns="http://www.w3.org/2000/svg"
   xmlns:sodipodi="http://sodipodi.sourceforge.net/DTD/sodipodi-0.dtd"
   xmlns:inkscape="http://www.inkscape.org/namespaces/inkscape"
   id="svg2"
   version="1.1"
   inkscape:version="0.47 r22583"
   width="652.05896"
   height="488.84177"
   xml:space="preserve"
   sodipodi:docname="ntele-scale.svg"><metadata
     id="metadata8"><rdf:RDF><cc:Work
         rdf:about=""><dc:format>image/svg+xml</dc:format><dc:type
           rdf:resource="http://purl.org/dc/dcmitype/StillImage" /><dc:title /></cc:Work></rdf:RDF></metadata><defs
     id="defs6"><inkscape:perspective
       sodipodi:type="inkscape:persp3d"
       inkscape:vp_x="0 : 0.5 : 1"
       inkscape:vp_y="0 : 1000 : 0"
       inkscape:vp_z="1 : 0.5 : 1"
       inkscape:persp3d-origin="0.5 : 0.33333333 : 1"
       id="perspective10" /><inkscape:perspective
       id="perspective3766"
       inkscape:persp3d-origin="0.5 : 0.33333333 : 1"
       inkscape:vp_z="1 : 0.5 : 1"
       inkscape:vp_y="0 : 1000 : 0"
       inkscape:vp_x="0 : 0.5 : 1"
       sodipodi:type="inkscape:persp3d" /></defs><sodipodi:namedview
     pagecolor="#ffffff"
     bordercolor="#666666"
     borderopacity="1"
     objecttolerance="10"
     gridtolerance="10"
     guidetolerance="10"
     inkscape:pageopacity="0"
     inkscape:pageshadow="2"
     inkscape:window-width="1274"
     inkscape:window-height="948"
     id="namedview4"
     showgrid="false"
     inkscape:zoom="0.67425131"
     inkscape:cx="403.19176"
     inkscape:cy="258.56438"
     inkscape:window-x="1280"
     inkscape:window-y="0"
     inkscape:window-maximized="1"
     inkscape:current-layer="g12" /><g
     id="g12"
     inkscape:groupmode="layer"
     inkscape:label="ntele-scale"
     transform="matrix(1.25,0,0,-1.25,-33.956981,724.31375)"><g
   transform="matrix(1,0,0,-1,0,792)"
   id="g18"
   style="stroke-width:0.80000001;stroke-miterlimit:10;stroke-dasharray:none"><path
     id="path20"
     style="fill:none;stroke:#000000;stroke-width:0.80000001;stroke-linecap:square;stroke-linejoin:miter;stroke-miterlimit:10;stroke-opacity:1;stroke-dasharray:none"
     d="m 93.352,565 5.148,0" /></g><g
   transform="matrix(1,0,0,-1,0,792)"
   id="g22"
   style="stroke-width:0.80000001;stroke-miterlimit:10;stroke-dasharray:none"><path
     id="path24"
     style="fill:none;stroke:#000000;stroke-width:0.80000001;stroke-linecap:square;stroke-linejoin:miter;stroke-miterlimit:10;stroke-opacity:1;stroke-dasharray:none"
     d="m 539.699,565 -5.148,0" /></g><text
   id="text26"
   transform="scale(1,-1)"
   x="52.625"
   y="-221.44922"><tspan
     id="tspan28"
     sodipodi:role="line"
     y="-221.44922"
     x="52.625 62.800999 67.873001 78.048996"
     style="font-size:16px;font-variant:normal;font-weight:normal;writing-mode:lr-tb;fill:#000000;fill-opacity:1;fill-rule:nonzero;stroke:none;font-family:Bitstream Vera Sans;-inkscape-font-specification:BitstreamVeraSans">0.95</tspan></text>

<g
   transform="matrix(1,0,0,-1,0,792)"
   id="g30"
   style="stroke-width:0.80000001;stroke-miterlimit:10;stroke-dasharray:none"><path
     id="path32"
     style="fill:none;stroke:#000000;stroke-width:0.80000001;stroke-linecap:square;stroke-linejoin:miter;stroke-miterlimit:10;stroke-opacity:1;stroke-dasharray:none"
     d="m 93.352,523.102 5.148,0" /></g><g
   transform="matrix(1,0,0,-1,0,792)"
   id="g34"
   style="stroke-width:0.80000001;stroke-miterlimit:10;stroke-dasharray:none"><path
     id="path36"
     style="fill:none;stroke:#000000;stroke-width:0.80000001;stroke-linecap:square;stroke-linejoin:miter;stroke-miterlimit:10;stroke-opacity:1;stroke-dasharray:none"
     d="m 539.699,523.102 -5.148,0" /></g><text
   id="text38"
   transform="scale(1,-1)"
   x="78.070312"
   y="-263.34766"><tspan
     id="tspan40"
     y="-263.34766"
     x="78.070312"
     style="font-size:16px;font-variant:normal;font-weight:normal;writing-mode:lr-tb;fill:#000000;fill-opacity:1;fill-rule:nonzero;stroke:none;font-family:Bitstream Vera Sans;-inkscape-font-specification:BitstreamVeraSans">1</tspan></text>

<g
   transform="matrix(1,0,0,-1,0,792)"
   id="g42"
   style="stroke-width:0.80000001;stroke-miterlimit:10;stroke-dasharray:none"><path
     id="path44"
     style="fill:none;stroke:#000000;stroke-width:0.80000001;stroke-linecap:square;stroke-linejoin:miter;stroke-miterlimit:10;stroke-opacity:1;stroke-dasharray:none"
     d="m 93.352,481.199 5.148,0" /></g><g
   transform="matrix(1,0,0,-1,0,792)"
   id="g46"
   style="stroke-width:0.80000001;stroke-miterlimit:10;stroke-dasharray:none"><path
     id="path48"
     style="fill:none;stroke:#000000;stroke-width:0.80000001;stroke-linecap:square;stroke-linejoin:miter;stroke-miterlimit:10;stroke-opacity:1;stroke-dasharray:none"
     d="m 539.699,481.199 -5.148,0" /></g><text
   id="text50"
   transform="scale(1,-1)"
   x="52.625"
   y="-305.25"><tspan
     id="tspan52"
     sodipodi:role="line"
     y="-305.25"
     x="52.625 62.800999 67.873001 78.048996"
     style="font-size:16px;font-variant:normal;font-weight:normal;writing-mode:lr-tb;fill:#000000;fill-opacity:1;fill-rule:nonzero;stroke:none;font-family:Bitstream Vera Sans;-inkscape-font-specification:BitstreamVeraSans">1.05</tspan></text>

<g
   transform="matrix(1,0,0,-1,0,792)"
   id="g54"
   style="stroke-width:0.80000001;stroke-miterlimit:10;stroke-dasharray:none"><path
     id="path56"
     style="fill:none;stroke:#000000;stroke-width:0.80000001;stroke-linecap:square;stroke-linejoin:miter;stroke-miterlimit:10;stroke-opacity:1;stroke-dasharray:none"
     d="m 93.352,439.25 5.148,0" /></g><g
   transform="matrix(1,0,0,-1,0,792)"
   id="g58"
   style="stroke-width:0.80000001;stroke-miterlimit:10;stroke-dasharray:none"><path
     id="path60"
     style="fill:none;stroke:#000000;stroke-width:0.80000001;stroke-linecap:square;stroke-linejoin:miter;stroke-miterlimit:10;stroke-opacity:1;stroke-dasharray:none"
     d="m 539.699,439.25 -5.148,0" /></g><text
   id="text62"
   transform="scale(1,-1)"
   x="62.804688"
   y="-347.19922"><tspan
     id="tspan64"
     sodipodi:role="line"
     y="-347.19922"
     x="62.804688 72.98069 78.052689"
     style="font-size:16px;font-variant:normal;font-weight:normal;writing-mode:lr-tb;fill:#000000;fill-opacity:1;fill-rule:nonzero;stroke:none;font-family:Bitstream Vera Sans;-inkscape-font-specification:BitstreamVeraSans">1.1</tspan></text>

<g
   transform="matrix(1,0,0,-1,0,792)"
   id="g66"
   style="stroke-width:0.80000001;stroke-miterlimit:10;stroke-dasharray:none"><path
     id="path68"
     style="fill:none;stroke:#000000;stroke-width:0.80000001;stroke-linecap:square;stroke-linejoin:miter;stroke-miterlimit:10;stroke-opacity:1;stroke-dasharray:none"
     d="m 93.352,397.352 5.148,0" /></g><g
   transform="matrix(1,0,0,-1,0,792)"
   id="g70"
   style="stroke-width:0.80000001;stroke-miterlimit:10;stroke-dasharray:none"><path
     id="path72"
     style="fill:none;stroke:#000000;stroke-width:0.80000001;stroke-linecap:square;stroke-linejoin:miter;stroke-miterlimit:10;stroke-opacity:1;stroke-dasharray:none"
     d="m 539.699,397.352 -5.148,0" /></g><text
   id="text74"
   transform="scale(1,-1)"
   x="52.625"
   y="-389.09766"><tspan
     id="tspan76"
     sodipodi:role="line"
     y="-389.09766"
     x="52.625 62.800999 67.873001 78.048996"
     style="font-size:16px;font-variant:normal;font-weight:normal;writing-mode:lr-tb;fill:#000000;fill-opacity:1;fill-rule:nonzero;stroke:none;font-family:Bitstream Vera Sans;-inkscape-font-specification:BitstreamVeraSans">1.15</tspan></text>

<g
   transform="matrix(1,0,0,-1,0,792)"
   id="g78"
   style="stroke-width:0.80000001;stroke-miterlimit:10;stroke-dasharray:none"><path
     id="path80"
     style="fill:none;stroke:#000000;stroke-width:0.80000001;stroke-linecap:square;stroke-linejoin:miter;stroke-miterlimit:10;stroke-opacity:1;stroke-dasharray:none"
     d="m 93.352,355.449 5.148,0" /></g><g
   transform="matrix(1,0,0,-1,0,792)"
   id="g82"
   style="stroke-width:0.80000001;stroke-miterlimit:10;stroke-dasharray:none"><path
     id="path84"
     style="fill:none;stroke:#000000;stroke-width:0.80000001;stroke-linecap:square;stroke-linejoin:miter;stroke-miterlimit:10;stroke-opacity:1;stroke-dasharray:none"
     d="m 539.699,355.449 -5.148,0" /></g><text
   id="text86"
   transform="scale(1,-1)"
   x="62.804688"
   y="-431"><tspan
     id="tspan88"
     sodipodi:role="line"
     y="-431"
     x="62.804688 72.98069 78.052689"
     style="font-size:16px;font-variant:normal;font-weight:normal;writing-mode:lr-tb;fill:#000000;fill-opacity:1;fill-rule:nonzero;stroke:none;font-family:Bitstream Vera Sans;-inkscape-font-specification:BitstreamVeraSans">1.2</tspan></text>

<g
   transform="matrix(1,0,0,-1,0,792)"
   id="g90"
   style="stroke-width:0.80000001;stroke-miterlimit:10;stroke-dasharray:none"><path
     id="path92"
     style="fill:none;stroke:#000000;stroke-width:0.80000001;stroke-linecap:square;stroke-linejoin:miter;stroke-miterlimit:10;stroke-opacity:1;stroke-dasharray:none"
     d="m 93.352,313.551 5.148,0" /></g><g
   transform="matrix(1,0,0,-1,0,792)"
   id="g94"
   style="stroke-width:0.80000001;stroke-miterlimit:10;stroke-dasharray:none"><path
     id="path96"
     style="fill:none;stroke:#000000;stroke-width:0.80000001;stroke-linecap:square;stroke-linejoin:miter;stroke-miterlimit:10;stroke-opacity:1;stroke-dasharray:none"
     d="m 539.699,313.551 -5.148,0" /></g><text
   id="text98"
   transform="scale(1,-1)"
   x="52.625"
   y="-472.89844"><tspan
     id="tspan100"
     sodipodi:role="line"
     y="-472.89844"
     x="52.625 62.800999 67.873001 78.048996"
     style="font-size:16px;font-variant:normal;font-weight:normal;writing-mode:lr-tb;fill:#000000;fill-opacity:1;fill-rule:nonzero;stroke:none;font-family:Bitstream Vera Sans;-inkscape-font-specification:BitstreamVeraSans">1.25</tspan></text>

<g
   transform="matrix(1,0,0,-1,0,792)"
   id="g102"
   style="stroke-width:0.80000001;stroke-miterlimit:10;stroke-dasharray:none"><path
     id="path104"
     style="fill:none;stroke:#000000;stroke-width:0.80000001;stroke-linecap:square;stroke-linejoin:miter;stroke-miterlimit:10;stroke-opacity:1;stroke-dasharray:none"
     d="m 93.352,271.602 5.148,0" /></g><g
   transform="matrix(1,0,0,-1,0,792)"
   id="g106"
   style="stroke-width:0.80000001;stroke-miterlimit:10;stroke-dasharray:none"><path
     id="path108"
     style="fill:none;stroke:#000000;stroke-width:0.80000001;stroke-linecap:square;stroke-linejoin:miter;stroke-miterlimit:10;stroke-opacity:1;stroke-dasharray:none"
     d="m 539.699,271.602 -5.148,0" /></g><text
   id="text110"
   transform="scale(1,-1)"
   x="62.804688"
   y="-514.84766"><tspan
     id="tspan112"
     sodipodi:role="line"
     y="-514.84766"
     x="62.804688 72.98069 78.052689"
     style="font-size:16px;font-variant:normal;font-weight:normal;writing-mode:lr-tb;fill:#000000;fill-opacity:1;fill-rule:nonzero;stroke:none;font-family:Bitstream Vera Sans;-inkscape-font-specification:BitstreamVeraSans">1.3</tspan></text>

<g
   transform="matrix(1,0,0,-1,0,792)"
   id="g114"
   style="stroke-width:0.80000001;stroke-miterlimit:10;stroke-dasharray:none"><path
     id="path116"
     style="fill:none;stroke:#000000;stroke-width:0.80000001;stroke-linecap:square;stroke-linejoin:miter;stroke-miterlimit:10;stroke-opacity:1;stroke-dasharray:none"
     d="m 93.352,229.699 5.148,0" /></g><g
   transform="matrix(1,0,0,-1,0,792)"
   id="g118"
   style="stroke-width:0.80000001;stroke-miterlimit:10;stroke-dasharray:none"><path
     id="path120"
     style="fill:none;stroke:#000000;stroke-width:0.80000001;stroke-linecap:square;stroke-linejoin:miter;stroke-miterlimit:10;stroke-opacity:1;stroke-dasharray:none"
     d="m 539.699,229.699 -5.148,0" /></g><text
   id="text122"
   transform="scale(1,-1)"
   x="52.625"
   y="-556.75"><tspan
     id="tspan124"
     sodipodi:role="line"
     y="-556.75"
     x="52.625 62.800999 67.873001 78.048996"
     style="font-size:16px;font-variant:normal;font-weight:normal;writing-mode:lr-tb;fill:#000000;fill-opacity:1;fill-rule:nonzero;stroke:none;font-family:Bitstream Vera Sans;-inkscape-font-specification:BitstreamVeraSans">1.35</tspan></text>

<g
   transform="matrix(1,0,0,-1,0,792)"
   id="g126"
   style="stroke-width:0.80000001;stroke-miterlimit:10;stroke-dasharray:none"><path
     id="path128"
     style="fill:none;stroke:#000000;stroke-width:0.80000001;stroke-linecap:square;stroke-linejoin:miter;stroke-miterlimit:10;stroke-opacity:1;stroke-dasharray:none"
     d="m 133.949,565 0,-5.148" /></g><g
   transform="matrix(1,0,0,-1,0,792)"
   id="g130"
   style="stroke-width:0.80000001;stroke-miterlimit:10;stroke-dasharray:none"><path
     id="path132"
     style="fill:none;stroke:#000000;stroke-width:0.80000001;stroke-linecap:square;stroke-linejoin:miter;stroke-miterlimit:10;stroke-opacity:1;stroke-dasharray:none"
     d="m 133.949,212.949 0,5.153" /></g><text
   id="text134"
   transform="scale(1,-1)"
   x="123.76953"
   y="-212.14844"><tspan
     id="tspan136"
     sodipodi:role="line"
     y="-212.14844"
     x="123.76953 133.94553"
     style="font-size:16px;font-variant:normal;font-weight:normal;writing-mode:lr-tb;fill:#000000;fill-opacity:1;fill-rule:nonzero;stroke:none;font-family:Bitstream Vera Sans;-inkscape-font-specification:BitstreamVeraSans">50</tspan></text>

<g
   transform="matrix(1,0,0,-1,0,792)"
   id="g138"
   style="stroke-width:0.80000001;stroke-miterlimit:10;stroke-dasharray:none"><path
     id="path140"
     style="fill:none;stroke:#000000;stroke-width:0.80000001;stroke-linecap:square;stroke-linejoin:miter;stroke-miterlimit:10;stroke-opacity:1;stroke-dasharray:none"
     d="m 235.352,565 0,-5.148" /></g><g
   transform="matrix(1,0,0,-1,0,792)"
   id="g142"
   style="stroke-width:0.80000001;stroke-miterlimit:10;stroke-dasharray:none"><path
     id="path144"
     style="fill:none;stroke:#000000;stroke-width:0.80000001;stroke-linecap:square;stroke-linejoin:miter;stroke-miterlimit:10;stroke-opacity:1;stroke-dasharray:none"
     d="m 235.352,212.949 0,5.153" /></g><text
   id="text146"
   transform="scale(1,-1)"
   x="225.17188"
   y="-212.14844"><tspan
     id="tspan148"
     sodipodi:role="line"
     y="-212.14844"
     x="225.17188 235.34787"
     style="font-size:16px;font-variant:normal;font-weight:normal;writing-mode:lr-tb;fill:#000000;fill-opacity:1;fill-rule:nonzero;stroke:none;font-family:Bitstream Vera Sans;-inkscape-font-specification:BitstreamVeraSans">55</tspan></text>

<g
   transform="matrix(1,0,0,-1,0,792)"
   id="g150"
   style="stroke-width:0.80000001;stroke-miterlimit:10;stroke-dasharray:none"><path
     id="path152"
     style="fill:none;stroke:#000000;stroke-width:0.80000001;stroke-linecap:square;stroke-linejoin:miter;stroke-miterlimit:10;stroke-opacity:1;stroke-dasharray:none"
     d="m 336.801,565 0,-5.148" /></g><g
   transform="matrix(1,0,0,-1,0,792)"
   id="g154"
   style="stroke-width:0.80000001;stroke-miterlimit:10;stroke-dasharray:none"><path
     id="path156"
     style="fill:none;stroke:#000000;stroke-width:0.80000001;stroke-linecap:square;stroke-linejoin:miter;stroke-miterlimit:10;stroke-opacity:1;stroke-dasharray:none"
     d="m 336.801,212.949 0,5.153" /></g><text
   id="text158"
   transform="scale(1,-1)"
   x="326.62109"
   y="-212.14844"><tspan
     id="tspan160"
     sodipodi:role="line"
     y="-212.14844"
     x="326.62109 336.79709"
     style="font-size:16px;font-variant:normal;font-weight:normal;writing-mode:lr-tb;fill:#000000;fill-opacity:1;fill-rule:nonzero;stroke:none;font-family:Bitstream Vera Sans;-inkscape-font-specification:BitstreamVeraSans">60</tspan></text>

<g
   transform="matrix(1,0,0,-1,0,792)"
   id="g162"
   style="stroke-width:0.80000001;stroke-miterlimit:10;stroke-dasharray:none"><path
     id="path164"
     style="fill:none;stroke:#000000;stroke-width:0.80000001;stroke-linecap:square;stroke-linejoin:miter;stroke-miterlimit:10;stroke-opacity:1;stroke-dasharray:none"
     d="m 438.25,565 0,-5.148" /></g><g
   transform="matrix(1,0,0,-1,0,792)"
   id="g166"
   style="stroke-width:0.80000001;stroke-miterlimit:10;stroke-dasharray:none"><path
     id="path168"
     style="fill:none;stroke:#000000;stroke-width:0.80000001;stroke-linecap:square;stroke-linejoin:miter;stroke-miterlimit:10;stroke-opacity:1;stroke-dasharray:none"
     d="m 438.25,212.949 0,5.153" /></g><text
   id="text170"
   transform="scale(1,-1)"
   x="428.07031"
   y="-212.14844"><tspan
     id="tspan172"
     sodipodi:role="line"
     y="-212.14844"
     x="428.07031 438.24631"
     style="font-size:16px;font-variant:normal;font-weight:normal;writing-mode:lr-tb;fill:#000000;fill-opacity:1;fill-rule:nonzero;stroke:none;font-family:Bitstream Vera Sans;-inkscape-font-specification:BitstreamVeraSans">65</tspan></text>

<g
   transform="matrix(1,0,0,-1,0,792)"
   id="g174"
   style="stroke-width:0.80000001;stroke-miterlimit:10;stroke-dasharray:none"><path
     id="path176"
     style="fill:none;stroke:#000000;stroke-width:0.80000001;stroke-linecap:square;stroke-linejoin:miter;stroke-miterlimit:10;stroke-opacity:1;stroke-dasharray:none"
     d="m 539.699,565 0,-5.148" /></g><g
   transform="matrix(1,0,0,-1,0,792)"
   id="g178"
   style="stroke-width:0.80000001;stroke-miterlimit:10;stroke-dasharray:none"><path
     id="path180"
     style="fill:none;stroke:#000000;stroke-width:0.80000001;stroke-linecap:square;stroke-linejoin:miter;stroke-miterlimit:10;stroke-opacity:1;stroke-dasharray:none"
     d="m 539.699,212.949 0,5.153" /></g><text
   id="text182"
   transform="scale(1,-1)"
   x="529.51953"
   y="-212.14844"><tspan
     id="tspan184"
     sodipodi:role="line"
     y="-212.14844"
     x="529.51953 539.69556"
     style="font-size:16px;font-variant:normal;font-weight:normal;writing-mode:lr-tb;fill:#000000;fill-opacity:1;fill-rule:nonzero;stroke:none;font-family:Bitstream Vera Sans;-inkscape-font-specification:BitstreamVeraSans">70</tspan></text>

<g
   transform="matrix(1,0,0,-1,0,792)"
   id="g186"
   style="stroke-width:0.80000001;stroke-miterlimit:10;stroke-dasharray:none"><path
     id="path188"
     style="fill:none;stroke:#000000;stroke-width:0.80000001;stroke-linecap:square;stroke-linejoin:miter;stroke-miterlimit:10;stroke-opacity:1;stroke-dasharray:none"
     d="m 93.352,212.949 0,352.051 446.347,0 0,-352.051 -446.347,0" /></g><text
   id="text190"
   transform="matrix(0,1,1,0,0,0)"
   x="321.33594"
   y="39.321835"><tspan
     id="tspan192"
     sodipodi:role="line"
     y="39.321835"
     x="321.33594 331.47995 341.62393 351.46393 361.30392 371.44794 376.51993 384.83994 393.62393 403.41595 407.84793 412.27994 422.40793 432.55194 437.62393 443.25595 453.04794 461.83194 468.10394 477.87994"
     style="font-size:16px;font-variant:normal;font-weight:normal;writing-mode:lr-tb;fill:#000000;fill-opacity:1;fill-rule:nonzero;stroke:none;font-family:Bitstream Vera Sans;-inkscape-font-specification:BitstreamVeraSans">Speed scaling factor</tspan></text>

<text
   id="text194"
   transform="scale(1,-1)"
   x="213.55469"
   y="-190.48695"><tspan
     id="tspan196"
     sodipodi:role="line"
     y="-190.48695"
     x="213.55469 225.87469 230.30669 238.62669 244.8987 254.69069 264.8187 273.60269 283.44269 288.51468 294.78668 304.56268 309.6347 319.77869 329.90668 336.4827 342.11469 351.90671 360.6907 370.5307 375.78906 382.02905 397.61307 413.19705"
     style="font-size:16px;font-variant:normal;font-weight:normal;writing-mode:lr-tb;fill:#000000;fill-opacity:1;fill-rule:nonzero;stroke:none;font-family:Bitstream Vera Sans;-inkscape-font-specification:BitstreamVeraSans">Distance to Surface (mm)</tspan><tspan
     id="tspan198"
     sodipodi:role="line"
     y="nan"
     x="213.55469"
     style="font-size:16px;font-variant:normal;font-weight:normal;writing-mode:lr-tb;fill:#000000;fill-opacity:1;fill-rule:nonzero;stroke:none;font-family:Bitstream Vera Sans;-inkscape-font-specification:BitstreamVeraSans" /></text>

<path
   d="m 505.398,564.76649 24.102,0"
   style="fill:none;stroke:#0000ff;stroke-width:0.80000001;stroke-linecap:square;stroke-linejoin:miter;stroke-miterlimit:10;stroke-opacity:1;stroke-dasharray:none"
   id="path202" /><g
   transform="matrix(1,0,0,-1,0,792)"
   id="g204"
   style="stroke-width:0.80000001;stroke-miterlimit:10;stroke-dasharray:none"><path
     id="path206"
     style="fill:none;stroke:#0000ff;stroke-width:0.80000001;stroke-linecap:square;stroke-linejoin:miter;stroke-miterlimit:10;stroke-opacity:1;stroke-dasharray:none"
     d="m 174.5,523.102 97.398,-77.25 105.5,-64.602 101.454,-91.398" /></g><path
   id="path208"
   style="fill:#0000ff;fill-opacity:1;fill-rule:nonzero;stroke:none"
   d="m 175,268.898 c 0,-0.664 -1,-0.664 -1,0 0,0.668 1,0.668 1,0" /><g
   transform="matrix(1,0,0,-1,0,792)"
   id="g210"
   style="stroke-width:0.80000001;stroke-miterlimit:10;stroke-dasharray:none"><path
     id="path212"
     style="fill:none;stroke:#0000ff;stroke-width:0.80000001;stroke-linecap:square;stroke-linejoin:miter;stroke-miterlimit:10;stroke-opacity:1;stroke-dasharray:none"
     d="m 171.5,523.102 6,0" /></g><g
   transform="matrix(1,0,0,-1,0,792)"
   id="g214"
   style="stroke-width:0.80000001;stroke-miterlimit:10;stroke-dasharray:none"><path
     id="path216"
     style="fill:none;stroke:#0000ff;stroke-width:0.80000001;stroke-linecap:square;stroke-linejoin:miter;stroke-miterlimit:10;stroke-opacity:1;stroke-dasharray:none"
     d="m 174.5,520.102 0,6" /></g><g
   transform="matrix(1,0,0,-1,0,792)"
   id="g218"
   style="stroke-width:0.80000001;stroke-miterlimit:10;stroke-dasharray:none"><path
     id="path220"
     style="fill:none;stroke:#0000ff;stroke-width:0.80000001;stroke-linecap:square;stroke-linejoin:miter;stroke-miterlimit:10;stroke-opacity:1;stroke-dasharray:none"
     d="m 171.5,520.102 6,6" /></g><g
   transform="matrix(1,0,0,-1,0,792)"
   id="g222"
   style="stroke-width:0.80000001;stroke-miterlimit:10;stroke-dasharray:none"><path
     id="path224"
     style="fill:none;stroke:#0000ff;stroke-width:0.80000001;stroke-linecap:square;stroke-linejoin:miter;stroke-miterlimit:10;stroke-opacity:1;stroke-dasharray:none"
     d="m 171.5,526.102 6,-6" /></g><path
   id="path226"
   style="fill:#0000ff;fill-opacity:1;fill-rule:nonzero;stroke:none"
   d="m 272.398,346.148 c 0,-0.664 -1,-0.664 -1,0 0,0.668 1,0.668 1,0" /><g
   transform="matrix(1,0,0,-1,0,792)"
   id="g228"
   style="stroke-width:0.80000001;stroke-miterlimit:10;stroke-dasharray:none"><path
     id="path230"
     style="fill:none;stroke:#0000ff;stroke-width:0.80000001;stroke-linecap:square;stroke-linejoin:miter;stroke-miterlimit:10;stroke-opacity:1;stroke-dasharray:none"
     d="m 268.898,445.852 6,0" /></g><g
   transform="matrix(1,0,0,-1,0,792)"
   id="g232"
   style="stroke-width:0.80000001;stroke-miterlimit:10;stroke-dasharray:none"><path
     id="path234"
     style="fill:none;stroke:#0000ff;stroke-width:0.80000001;stroke-linecap:square;stroke-linejoin:miter;stroke-miterlimit:10;stroke-opacity:1;stroke-dasharray:none"
     d="m 271.898,442.852 0,6" /></g><g
   transform="matrix(1,0,0,-1,0,792)"
   id="g236"
   style="stroke-width:0.80000001;stroke-miterlimit:10;stroke-dasharray:none"><path
     id="path238"
     style="fill:none;stroke:#0000ff;stroke-width:0.80000001;stroke-linecap:square;stroke-linejoin:miter;stroke-miterlimit:10;stroke-opacity:1;stroke-dasharray:none"
     d="m 268.898,442.852 6,6" /></g><g
   transform="matrix(1,0,0,-1,0,792)"
   id="g240"
   style="stroke-width:0.80000001;stroke-miterlimit:10;stroke-dasharray:none"><path
     id="path242"
     style="fill:none;stroke:#0000ff;stroke-width:0.80000001;stroke-linecap:square;stroke-linejoin:miter;stroke-miterlimit:10;stroke-opacity:1;stroke-dasharray:none"
     d="m 268.898,448.852 6,-6" /></g><path
   id="path244"
   style="fill:#0000ff;fill-opacity:1;fill-rule:nonzero;stroke:none"
   d="m 377.898,410.75 c 0,-0.668 -1,-0.668 -1,0 0,0.668 1,0.668 1,0" /><g
   transform="matrix(1,0,0,-1,0,792)"
   id="g246"
   style="stroke-width:0.80000001;stroke-miterlimit:10;stroke-dasharray:none"><path
     id="path248"
     style="fill:none;stroke:#0000ff;stroke-width:0.80000001;stroke-linecap:square;stroke-linejoin:miter;stroke-miterlimit:10;stroke-opacity:1;stroke-dasharray:none"
     d="m 374.398,381.25 6,0" /></g><g
   transform="matrix(1,0,0,-1,0,792)"
   id="g250"
   style="stroke-width:0.80000001;stroke-miterlimit:10;stroke-dasharray:none"><path
     id="path252"
     style="fill:none;stroke:#0000ff;stroke-width:0.80000001;stroke-linecap:square;stroke-linejoin:miter;stroke-miterlimit:10;stroke-opacity:1;stroke-dasharray:none"
     d="m 377.398,378.25 0,6" /></g><g
   transform="matrix(1,0,0,-1,0,792)"
   id="g254"
   style="stroke-width:0.80000001;stroke-miterlimit:10;stroke-dasharray:none"><path
     id="path256"
     style="fill:none;stroke:#0000ff;stroke-width:0.80000001;stroke-linecap:square;stroke-linejoin:miter;stroke-miterlimit:10;stroke-opacity:1;stroke-dasharray:none"
     d="m 374.398,378.25 6,6" /></g><g
   transform="matrix(1,0,0,-1,0,792)"
   id="g258"
   style="stroke-width:0.80000001;stroke-miterlimit:10;stroke-dasharray:none"><path
     id="path260"
     style="fill:none;stroke:#0000ff;stroke-width:0.80000001;stroke-linecap:square;stroke-linejoin:miter;stroke-miterlimit:10;stroke-opacity:1;stroke-dasharray:none"
     d="m 374.398,384.25 6,-6" /></g><path
   id="path262"
   style="fill:#0000ff;fill-opacity:1;fill-rule:nonzero;stroke:none"
   d="m 479.352,502.148 c 0,-0.664 -1,-0.664 -1,0 0,0.668 1,0.668 1,0" /><g
   transform="matrix(1,0,0,-1,0,792)"
   id="g264"
   style="stroke-width:0.80000001;stroke-miterlimit:10;stroke-dasharray:none"><path
     id="path266"
     style="fill:none;stroke:#0000ff;stroke-width:0.80000001;stroke-linecap:square;stroke-linejoin:miter;stroke-miterlimit:10;stroke-opacity:1;stroke-dasharray:none"
     d="m 475.852,289.852 6,0" /></g><g
   transform="matrix(1,0,0,-1,0,792)"
   id="g268"
   style="stroke-width:0.80000001;stroke-miterlimit:10;stroke-dasharray:none"><path
     id="path270"
     style="fill:none;stroke:#0000ff;stroke-width:0.80000001;stroke-linecap:square;stroke-linejoin:miter;stroke-miterlimit:10;stroke-opacity:1;stroke-dasharray:none"
     d="m 478.852,286.852 0,6" /></g><g
   transform="matrix(1,0,0,-1,0,792)"
   id="g272"
   style="stroke-width:0.80000001;stroke-miterlimit:10;stroke-dasharray:none"><path
     id="path274"
     style="fill:none;stroke:#0000ff;stroke-width:0.80000001;stroke-linecap:square;stroke-linejoin:miter;stroke-miterlimit:10;stroke-opacity:1;stroke-dasharray:none"
     d="m 475.852,286.852 6,6" /></g><g
   transform="matrix(1,0,0,-1,0,792)"
   id="g276"
   style="stroke-width:0.80000001;stroke-miterlimit:10;stroke-dasharray:none"><path
     id="path278"
     style="fill:none;stroke:#0000ff;stroke-width:0.80000001;stroke-linecap:square;stroke-linejoin:miter;stroke-miterlimit:10;stroke-opacity:1;stroke-dasharray:none"
     d="m 475.852,292.852 6,-6" /></g><path
   id="path280"
   style="fill:#0000ff;fill-opacity:1;fill-rule:nonzero;stroke:none"
   d="m 517.949,564.76649 c 0,-0.664 -1,-0.664 -1,0 0,0.668 1,0.668 1,0" /><path
   d="m 514.449,564.76649 6,0"
   style="fill:none;stroke:#0000ff;stroke-width:0.80000001;stroke-linecap:square;stroke-linejoin:miter;stroke-miterlimit:10;stroke-opacity:1;stroke-dasharray:none"
   id="path284" /><path
   d="m 517.449,567.76649 0,-6"
   style="fill:none;stroke:#0000ff;stroke-width:0.80000001;stroke-linecap:square;stroke-linejoin:miter;stroke-miterlimit:10;stroke-opacity:1;stroke-dasharray:none"
   id="path288" /><path
   d="m 514.449,567.76649 6,-6"
   style="fill:none;stroke:#0000ff;stroke-width:0.80000001;stroke-linecap:square;stroke-linejoin:miter;stroke-miterlimit:10;stroke-opacity:1;stroke-dasharray:none"
   id="path292" /><path
   d="m 514.449,561.76649 6,6"
   style="fill:none;stroke:#0000ff;stroke-width:0.80000001;stroke-linecap:square;stroke-linejoin:miter;stroke-miterlimit:10;stroke-opacity:1;stroke-dasharray:none"
   id="path296" /><text
   id="text298"
   transform="scale(1,-1)"
   x="431.20703"
   y="-537.33044"
   style="stroke-width:0.80000001;stroke-miterlimit:10;stroke-dasharray:none"><tspan
     id="tspan300"
     sodipodi:role="line"
     y="-537.33044"
     x="431.20703 442.37503 452.16702 458.74304 468.88702 478.72702 484.99902 490.07101"
     style="font-size:16px;font-variant:normal;font-weight:normal;writing-mode:lr-tb;fill:#000000;fill-opacity:1;fill-rule:nonzero;stroke:none;font-family:Bitstream Vera Sans;-inkscape-font-specification:BitstreamVeraSans">Carpet 3</tspan></text>

<g
   transform="matrix(1,0,0,-1,0,773.48274)"
   id="g302"
   style="stroke-width:0.80000001;stroke-miterlimit:10;stroke-dasharray:none"><path
     id="path304"
     style="fill:none;stroke:#ff0000;stroke-width:0.80000001;stroke-linecap:square;stroke-linejoin:miter;stroke-miterlimit:10;stroke-opacity:1;stroke-dasharray:none"
     d="m 505.398,230.602 24.102,0" /></g><g
   transform="matrix(1,0,0,-1,0,792)"
   id="g306"
   style="stroke-width:0.80000001;stroke-miterlimit:10;stroke-dasharray:none"><path
     id="path308"
     style="fill:none;stroke:#ff0000;stroke-width:0.80000001;stroke-linecap:square;stroke-linejoin:miter;stroke-miterlimit:10;stroke-opacity:1;stroke-dasharray:none"
     d="M 133.949,523.102 280,373.551 458.551,263.898" /></g><path
   id="path310"
   style="fill:#ff0000;fill-opacity:1;fill-rule:nonzero;stroke:none"
   d="m 134.449,268.898 c 0,-0.664 -1,-0.664 -1,0 0,0.668 1,0.668 1,0" /><g
   transform="matrix(1,0,0,-1,0,792)"
   id="g312"
   style="stroke-width:0.80000001;stroke-miterlimit:10;stroke-dasharray:none"><path
     id="path314"
     style="fill:none;stroke:#ff0000;stroke-width:0.80000001;stroke-linecap:square;stroke-linejoin:miter;stroke-miterlimit:10;stroke-opacity:1;stroke-dasharray:none"
     d="m 130.949,523.102 6,0" /></g><g
   transform="matrix(1,0,0,-1,0,792)"
   id="g316"
   style="stroke-width:0.80000001;stroke-miterlimit:10;stroke-dasharray:none"><path
     id="path318"
     style="fill:none;stroke:#ff0000;stroke-width:0.80000001;stroke-linecap:square;stroke-linejoin:miter;stroke-miterlimit:10;stroke-opacity:1;stroke-dasharray:none"
     d="m 133.949,520.102 0,6" /></g><g
   transform="matrix(1,0,0,-1,0,792)"
   id="g320"
   style="stroke-width:0.80000001;stroke-miterlimit:10;stroke-dasharray:none"><path
     id="path322"
     style="fill:none;stroke:#ff0000;stroke-width:0.80000001;stroke-linecap:square;stroke-linejoin:miter;stroke-miterlimit:10;stroke-opacity:1;stroke-dasharray:none"
     d="m 130.949,520.102 6,6" /></g><g
   transform="matrix(1,0,0,-1,0,792)"
   id="g324"
   style="stroke-width:0.80000001;stroke-miterlimit:10;stroke-dasharray:none"><path
     id="path326"
     style="fill:none;stroke:#ff0000;stroke-width:0.80000001;stroke-linecap:square;stroke-linejoin:miter;stroke-miterlimit:10;stroke-opacity:1;stroke-dasharray:none"
     d="m 130.949,526.102 6,-6" /></g><path
   id="path328"
   style="fill:#ff0000;fill-opacity:1;fill-rule:nonzero;stroke:none"
   d="m 280.5,418.449 c 0,-0.664 -1,-0.664 -1,0 0,0.668 1,0.668 1,0" /><g
   transform="matrix(1,0,0,-1,0,792)"
   id="g330"
   style="stroke-width:0.80000001;stroke-miterlimit:10;stroke-dasharray:none"><path
     id="path332"
     style="fill:none;stroke:#ff0000;stroke-width:0.80000001;stroke-linecap:square;stroke-linejoin:miter;stroke-miterlimit:10;stroke-opacity:1;stroke-dasharray:none"
     d="m 277,373.551 6,0" /></g><g
   transform="matrix(1,0,0,-1,0,792)"
   id="g334"
   style="stroke-width:0.80000001;stroke-miterlimit:10;stroke-dasharray:none"><path
     id="path336"
     style="fill:none;stroke:#ff0000;stroke-width:0.80000001;stroke-linecap:square;stroke-linejoin:miter;stroke-miterlimit:10;stroke-opacity:1;stroke-dasharray:none"
     d="m 280,370.551 0,6" /></g><g
   transform="matrix(1,0,0,-1,0,792)"
   id="g338"
   style="stroke-width:0.80000001;stroke-miterlimit:10;stroke-dasharray:none"><path
     id="path340"
     style="fill:none;stroke:#ff0000;stroke-width:0.80000001;stroke-linecap:square;stroke-linejoin:miter;stroke-miterlimit:10;stroke-opacity:1;stroke-dasharray:none"
     d="m 277,370.551 6,6" /></g><g
   transform="matrix(1,0,0,-1,0,792)"
   id="g342"
   style="stroke-width:0.80000001;stroke-miterlimit:10;stroke-dasharray:none"><path
     id="path344"
     style="fill:none;stroke:#ff0000;stroke-width:0.80000001;stroke-linecap:square;stroke-linejoin:miter;stroke-miterlimit:10;stroke-opacity:1;stroke-dasharray:none"
     d="m 277,376.551 6,-6" /></g><path
   id="path346"
   style="fill:#ff0000;fill-opacity:1;fill-rule:nonzero;stroke:none"
   d="m 459.051,528.102 c 0,-0.668 -1,-0.668 -1,0 0,0.664 1,0.664 1,0" /><g
   transform="matrix(1,0,0,-1,0,792)"
   id="g348"
   style="stroke-width:0.80000001;stroke-miterlimit:10;stroke-dasharray:none"><path
     id="path350"
     style="fill:none;stroke:#ff0000;stroke-width:0.80000001;stroke-linecap:square;stroke-linejoin:miter;stroke-miterlimit:10;stroke-opacity:1;stroke-dasharray:none"
     d="m 455.551,263.898 6,0" /></g><g
   transform="matrix(1,0,0,-1,0,792)"
   id="g352"
   style="stroke-width:0.80000001;stroke-miterlimit:10;stroke-dasharray:none"><path
     id="path354"
     style="fill:none;stroke:#ff0000;stroke-width:0.80000001;stroke-linecap:square;stroke-linejoin:miter;stroke-miterlimit:10;stroke-opacity:1;stroke-dasharray:none"
     d="m 458.551,260.898 0,6" /></g><g
   transform="matrix(1,0,0,-1,0,792)"
   id="g356"
   style="stroke-width:0.80000001;stroke-miterlimit:10;stroke-dasharray:none"><path
     id="path358"
     style="fill:none;stroke:#ff0000;stroke-width:0.80000001;stroke-linecap:square;stroke-linejoin:miter;stroke-miterlimit:10;stroke-opacity:1;stroke-dasharray:none"
     d="m 455.551,260.898 6,6" /></g><g
   transform="matrix(1,0,0,-1,0,792)"
   id="g360"
   style="stroke-width:0.80000001;stroke-miterlimit:10;stroke-dasharray:none"><path
     id="path362"
     style="fill:none;stroke:#ff0000;stroke-width:0.80000001;stroke-linecap:square;stroke-linejoin:miter;stroke-miterlimit:10;stroke-opacity:1;stroke-dasharray:none"
     d="m 455.551,266.898 6,-6" /></g><path
   id="path364"
   style="fill:#ff0000;fill-opacity:1;fill-rule:nonzero;stroke:none"
   d="m 517.949,542.88074 c 0,-0.664 -1,-0.664 -1,0 0,0.668 1,0.668 1,0" /><g
   transform="matrix(1,0,0,-1,0,773.48274)"
   id="g366"
   style="stroke-width:0.80000001;stroke-miterlimit:10;stroke-dasharray:none"><path
     id="path368"
     style="fill:none;stroke:#ff0000;stroke-width:0.80000001;stroke-linecap:square;stroke-linejoin:miter;stroke-miterlimit:10;stroke-opacity:1;stroke-dasharray:none"
     d="m 514.449,230.602 6,0" /></g><g
   transform="matrix(1,0,0,-1,0,773.48274)"
   id="g370"
   style="stroke-width:0.80000001;stroke-miterlimit:10;stroke-dasharray:none"><path
     id="path372"
     style="fill:none;stroke:#ff0000;stroke-width:0.80000001;stroke-linecap:square;stroke-linejoin:miter;stroke-miterlimit:10;stroke-opacity:1;stroke-dasharray:none"
     d="m 517.449,227.602 0,6" /></g><g
   transform="matrix(1,0,0,-1,0,773.48274)"
   id="g374"
   style="stroke-width:0.80000001;stroke-miterlimit:10;stroke-dasharray:none"><path
     id="path376"
     style="fill:none;stroke:#ff0000;stroke-width:0.80000001;stroke-linecap:square;stroke-linejoin:miter;stroke-miterlimit:10;stroke-opacity:1;stroke-dasharray:none"
     d="m 514.449,227.602 6,6" /></g><g
   transform="matrix(1,0,0,-1,0,773.48274)"
   id="g378"
   style="stroke-width:0.80000001;stroke-miterlimit:10;stroke-dasharray:none"><path
     id="path380"
     style="fill:none;stroke:#ff0000;stroke-width:0.80000001;stroke-linecap:square;stroke-linejoin:miter;stroke-miterlimit:10;stroke-opacity:1;stroke-dasharray:none"
     d="m 514.449,233.602 6,-6" /></g><text
   style="font-size:12px;stroke-width:0.80000001;stroke-miterlimit:10;stroke-dasharray:none"
   id="text298-3"
   x="431.26443"
   y="-557.78558"
   transform="scale(1,-1)"><tspan
     id="tspan300-6"
     sodipodi:role="line"
     y="-557.78558"
     x="431.26443 442.43243 452.22443 458.80045 468.94443 478.78442 485.05643"
     style="font-size:16px;font-variant:normal;font-weight:normal;writing-mode:lr-tb;fill:#000000;fill-opacity:1;fill-rule:nonzero;stroke:none;font-family:Bitstream Vera Sans;-inkscape-font-specification:BitstreamVeraSans">Carpet 1</tspan></text>

</g></svg>