<?xml version="1.0" encoding="UTF-8" standalone="no"?>
<!-- Created with Inkscape (http://www.inkscape.org/) -->

<svg
   xmlns:dc="http://purl.org/dc/elements/1.1/"
   xmlns:cc="http://creativecommons.org/ns#"
   xmlns:rdf="http://www.w3.org/1999/02/22-rdf-syntax-ns#"
   xmlns:svg="http://www.w3.org/2000/svg"
   xmlns="http://www.w3.org/2000/svg"
   xmlns:sodipodi="http://sodipodi.sourceforge.net/DTD/sodipodi-0.dtd"
   xmlns:inkscape="http://www.inkscape.org/namespaces/inkscape"
   id="svg2"
   version="1.1"
   inkscape:version="0.47 r22583"
   width="622.44568"
   height="495.25699"
   xml:space="preserve"
   sodipodi:docname="nontele.pdf"><metadata
     id="metadata8"><rdf:RDF><cc:Work
         rdf:about=""><dc:format>image/svg+xml</dc:format><dc:type
           rdf:resource="http://purl.org/dc/dcmitype/StillImage" /><dc:title></dc:title></cc:Work></rdf:RDF></metadata><defs
     id="defs6"><inkscape:perspective
       sodipodi:type="inkscape:persp3d"
       inkscape:vp_x="0 : 0.5 : 1"
       inkscape:vp_y="0 : 1000 : 0"
       inkscape:vp_z="1 : 0.5 : 1"
       inkscape:persp3d-origin="0.5 : 0.33333333 : 1"
       id="perspective10" /></defs><sodipodi:namedview
     pagecolor="#ffffff"
     bordercolor="#666666"
     borderopacity="1"
     objecttolerance="10"
     gridtolerance="10"
     guidetolerance="10"
     inkscape:pageopacity="0"
     inkscape:pageshadow="2"
     inkscape:window-width="1274"
     inkscape:window-height="994"
     id="namedview4"
     showgrid="false"
     inkscape:zoom="0.95353535"
     inkscape:cx="306.61509"
     inkscape:cy="200.27018"
     inkscape:window-x="0"
     inkscape:window-y="0"
     inkscape:window-maximized="1"
     inkscape:current-layer="g12" /><g
     id="g12"
     inkscape:groupmode="layer"
     inkscape:label="nontele"
     transform="matrix(1.25,0,0,-1.25,-63.570247,731.45508)"><g
       transform="matrix(1,0,0,-1,0,792)"
       id="g18"
       style="stroke-width:0.80000001;stroke-miterlimit:4;stroke-dasharray:none"><path
         id="path20"
         style="fill:none;stroke:#000000;stroke-width:0.80000001;stroke-linecap:square;stroke-linejoin:miter;stroke-miterlimit:4;stroke-opacity:1;stroke-dasharray:none"
         d="m 93.352,565 5.148,0" /></g><g
       transform="matrix(1,0,0,-1,0,792)"
       id="g22"
       style="stroke-width:0.80000001;stroke-miterlimit:4;stroke-dasharray:none"><path
         id="path24"
         style="fill:none;stroke:#000000;stroke-width:0.80000001;stroke-linecap:square;stroke-linejoin:miter;stroke-miterlimit:4;stroke-opacity:1;stroke-dasharray:none"
         d="m 539.699,565 -5.148,0" /></g><text
       id="text26"
       transform="scale(1,-1)"
       x="78.070312"
       y="-221.44922"
       style="stroke-width:0.80000001;stroke-miterlimit:4;stroke-dasharray:none"><tspan
         id="tspan28"
         y="-221.44922"
         x="78.070312"
         style="font-size:16px;font-variant:normal;font-weight:normal;writing-mode:lr-tb;fill:#000000;fill-opacity:1;fill-rule:nonzero;stroke:none;font-family:Bitstream Vera Sans;-inkscape-font-specification:BitstreamVeraSans">0</tspan></text>
<g
       transform="matrix(1,0,0,-1,0,792)"
       id="g30"
       style="stroke-width:0.80000001;stroke-miterlimit:4;stroke-dasharray:none"><path
         id="path32"
         style="fill:none;stroke:#000000;stroke-width:0.80000001;stroke-linecap:square;stroke-linejoin:miter;stroke-miterlimit:4;stroke-opacity:1;stroke-dasharray:none"
         d="m 93.352,514.699 5.148,0" /></g><g
       transform="matrix(1,0,0,-1,0,792)"
       id="g34"
       style="stroke-width:0.80000001;stroke-miterlimit:4;stroke-dasharray:none"><path
         id="path36"
         style="fill:none;stroke:#000000;stroke-width:0.80000001;stroke-linecap:square;stroke-linejoin:miter;stroke-miterlimit:4;stroke-opacity:1;stroke-dasharray:none"
         d="m 539.699,514.699 -5.148,0" /></g><text
       id="text38"
       transform="scale(1,-1)"
       x="78.070312"
       y="-271.75"
       style="stroke-width:0.80000001;stroke-miterlimit:4;stroke-dasharray:none"><tspan
         id="tspan40"
         y="-271.75"
         x="78.070312"
         style="font-size:16px;font-variant:normal;font-weight:normal;writing-mode:lr-tb;fill:#000000;fill-opacity:1;fill-rule:nonzero;stroke:none;font-family:Bitstream Vera Sans;-inkscape-font-specification:BitstreamVeraSans">1</tspan></text>
<g
       transform="matrix(1,0,0,-1,0,792)"
       id="g42"
       style="stroke-width:0.80000001;stroke-miterlimit:4;stroke-dasharray:none"><path
         id="path44"
         style="fill:none;stroke:#000000;stroke-width:0.80000001;stroke-linecap:square;stroke-linejoin:miter;stroke-miterlimit:4;stroke-opacity:1;stroke-dasharray:none"
         d="m 93.352,464.398 5.148,0" /></g><g
       transform="matrix(1,0,0,-1,0,792)"
       id="g46"
       style="stroke-width:0.80000001;stroke-miterlimit:4;stroke-dasharray:none"><path
         id="path48"
         style="fill:none;stroke:#000000;stroke-width:0.80000001;stroke-linecap:square;stroke-linejoin:miter;stroke-miterlimit:4;stroke-opacity:1;stroke-dasharray:none"
         d="m 539.699,464.398 -5.148,0" /></g><text
       id="text50"
       transform="scale(1,-1)"
       x="78.070312"
       y="-322.04688"
       style="stroke-width:0.80000001;stroke-miterlimit:4;stroke-dasharray:none"><tspan
         id="tspan52"
         y="-322.04688"
         x="78.070312"
         style="font-size:16px;font-variant:normal;font-weight:normal;writing-mode:lr-tb;fill:#000000;fill-opacity:1;fill-rule:nonzero;stroke:none;font-family:Bitstream Vera Sans;-inkscape-font-specification:BitstreamVeraSans">2</tspan></text>
<g
       transform="matrix(1,0,0,-1,0,792)"
       id="g54"
       style="stroke-width:0.80000001;stroke-miterlimit:4;stroke-dasharray:none"><path
         id="path56"
         style="fill:none;stroke:#000000;stroke-width:0.80000001;stroke-linecap:square;stroke-linejoin:miter;stroke-miterlimit:4;stroke-opacity:1;stroke-dasharray:none"
         d="m 93.352,414.102 5.148,0" /></g><g
       transform="matrix(1,0,0,-1,0,792)"
       id="g58"
       style="stroke-width:0.80000001;stroke-miterlimit:4;stroke-dasharray:none"><path
         id="path60"
         style="fill:none;stroke:#000000;stroke-width:0.80000001;stroke-linecap:square;stroke-linejoin:miter;stroke-miterlimit:4;stroke-opacity:1;stroke-dasharray:none"
         d="m 539.699,414.102 -5.148,0" /></g><text
       id="text62"
       transform="scale(1,-1)"
       x="78.070312"
       y="-372.34766"
       style="stroke-width:0.80000001;stroke-miterlimit:4;stroke-dasharray:none"><tspan
         id="tspan64"
         y="-372.34766"
         x="78.070312"
         style="font-size:16px;font-variant:normal;font-weight:normal;writing-mode:lr-tb;fill:#000000;fill-opacity:1;fill-rule:nonzero;stroke:none;font-family:Bitstream Vera Sans;-inkscape-font-specification:BitstreamVeraSans">3</tspan></text>
<g
       transform="matrix(1,0,0,-1,0,792)"
       id="g66"
       style="stroke-width:0.80000001;stroke-miterlimit:4;stroke-dasharray:none"><path
         id="path68"
         style="fill:none;stroke:#000000;stroke-width:0.80000001;stroke-linecap:square;stroke-linejoin:miter;stroke-miterlimit:4;stroke-opacity:1;stroke-dasharray:none"
         d="m 93.352,363.852 5.148,0" /></g><g
       transform="matrix(1,0,0,-1,0,792)"
       id="g70"
       style="stroke-width:0.80000001;stroke-miterlimit:4;stroke-dasharray:none"><path
         id="path72"
         style="fill:none;stroke:#000000;stroke-width:0.80000001;stroke-linecap:square;stroke-linejoin:miter;stroke-miterlimit:4;stroke-opacity:1;stroke-dasharray:none"
         d="m 539.699,363.852 -5.148,0" /></g><text
       id="text74"
       transform="scale(1,-1)"
       x="78.070312"
       y="-422.59766"
       style="stroke-width:0.80000001;stroke-miterlimit:4;stroke-dasharray:none"><tspan
         id="tspan76"
         y="-422.59766"
         x="78.070312"
         style="font-size:16px;font-variant:normal;font-weight:normal;writing-mode:lr-tb;fill:#000000;fill-opacity:1;fill-rule:nonzero;stroke:none;font-family:Bitstream Vera Sans;-inkscape-font-specification:BitstreamVeraSans">4</tspan></text>
<g
       transform="matrix(1,0,0,-1,0,792)"
       id="g78"
       style="stroke-width:0.80000001;stroke-miterlimit:4;stroke-dasharray:none"><path
         id="path80"
         style="fill:none;stroke:#000000;stroke-width:0.80000001;stroke-linecap:square;stroke-linejoin:miter;stroke-miterlimit:4;stroke-opacity:1;stroke-dasharray:none"
         d="m 93.352,313.551 5.148,0" /></g><g
       transform="matrix(1,0,0,-1,0,792)"
       id="g82"
       style="stroke-width:0.80000001;stroke-miterlimit:4;stroke-dasharray:none"><path
         id="path84"
         style="fill:none;stroke:#000000;stroke-width:0.80000001;stroke-linecap:square;stroke-linejoin:miter;stroke-miterlimit:4;stroke-opacity:1;stroke-dasharray:none"
         d="m 539.699,313.551 -5.148,0" /></g><text
       id="text86"
       transform="scale(1,-1)"
       x="78.070312"
       y="-472.89844"
       style="stroke-width:0.80000001;stroke-miterlimit:4;stroke-dasharray:none"><tspan
         id="tspan88"
         y="-472.89844"
         x="78.070312"
         style="font-size:16px;font-variant:normal;font-weight:normal;writing-mode:lr-tb;fill:#000000;fill-opacity:1;fill-rule:nonzero;stroke:none;font-family:Bitstream Vera Sans;-inkscape-font-specification:BitstreamVeraSans">5</tspan></text>
<g
       transform="matrix(1,0,0,-1,0,792)"
       id="g90"
       style="stroke-width:0.80000001;stroke-miterlimit:4;stroke-dasharray:none"><path
         id="path92"
         style="fill:none;stroke:#000000;stroke-width:0.80000001;stroke-linecap:square;stroke-linejoin:miter;stroke-miterlimit:4;stroke-opacity:1;stroke-dasharray:none"
         d="m 93.352,263.25 5.148,0" /></g><g
       transform="matrix(1,0,0,-1,0,792)"
       id="g94"
       style="stroke-width:0.80000001;stroke-miterlimit:4;stroke-dasharray:none"><path
         id="path96"
         style="fill:none;stroke:#000000;stroke-width:0.80000001;stroke-linecap:square;stroke-linejoin:miter;stroke-miterlimit:4;stroke-opacity:1;stroke-dasharray:none"
         d="m 539.699,263.25 -5.148,0" /></g><text
       id="text98"
       transform="scale(1,-1)"
       x="78.070312"
       y="-523.19922"
       style="stroke-width:0.80000001;stroke-miterlimit:4;stroke-dasharray:none"><tspan
         id="tspan100"
         y="-523.19922"
         x="78.070312"
         style="font-size:16px;font-variant:normal;font-weight:normal;writing-mode:lr-tb;fill:#000000;fill-opacity:1;fill-rule:nonzero;stroke:none;font-family:Bitstream Vera Sans;-inkscape-font-specification:BitstreamVeraSans">6</tspan></text>
<g
       transform="matrix(1,0,0,-1,0,792)"
       id="g102"
       style="stroke-width:0.80000001;stroke-miterlimit:4;stroke-dasharray:none"><path
         id="path104"
         style="fill:none;stroke:#000000;stroke-width:0.80000001;stroke-linecap:square;stroke-linejoin:miter;stroke-miterlimit:4;stroke-opacity:1;stroke-dasharray:none"
         d="m 93.352,212.949 5.148,0" /></g><g
       transform="matrix(1,0,0,-1,0,792)"
       id="g106"
       style="stroke-width:0.80000001;stroke-miterlimit:4;stroke-dasharray:none"><path
         id="path108"
         style="fill:none;stroke:#000000;stroke-width:0.80000001;stroke-linecap:square;stroke-linejoin:miter;stroke-miterlimit:4;stroke-opacity:1;stroke-dasharray:none"
         d="m 539.699,212.949 -5.148,0" /></g><text
       id="text110"
       transform="scale(1,-1)"
       x="78.070312"
       y="-573.5"
       style="stroke-width:0.80000001;stroke-miterlimit:4;stroke-dasharray:none"><tspan
         id="tspan112"
         y="-573.5"
         x="78.070312"
         style="font-size:16px;font-variant:normal;font-weight:normal;writing-mode:lr-tb;fill:#000000;fill-opacity:1;fill-rule:nonzero;stroke:none;font-family:Bitstream Vera Sans;-inkscape-font-specification:BitstreamVeraSans">7</tspan></text>
<g
       transform="matrix(1,0,0,-1,0,792)"
       id="g114"
       style="stroke-width:0.80000001;stroke-miterlimit:4;stroke-dasharray:none"><path
         id="path116"
         style="fill:none;stroke:#000000;stroke-width:0.80000001;stroke-linecap:square;stroke-linejoin:miter;stroke-miterlimit:4;stroke-opacity:1;stroke-dasharray:none"
         d="m 167.75,565 0,-5.148" /></g><g
       transform="matrix(1,0,0,-1,0,792)"
       id="g118"
       style="stroke-width:0.80000001;stroke-miterlimit:4;stroke-dasharray:none"><path
         id="path120"
         style="fill:none;stroke:#000000;stroke-width:0.80000001;stroke-linecap:square;stroke-linejoin:miter;stroke-miterlimit:4;stroke-opacity:1;stroke-dasharray:none"
         d="m 167.75,212.949 0,5.153" /></g><text
       id="text122"
       transform="scale(1,-1)"
       x="157.57031"
       y="-212.14844"
       style="stroke-width:0.80000001;stroke-miterlimit:4;stroke-dasharray:none"><tspan
         id="tspan124"
         sodipodi:role="line"
         y="-212.14844"
         x="157.57031 167.74631"
         style="font-size:16px;font-variant:normal;font-weight:normal;writing-mode:lr-tb;fill:#000000;fill-opacity:1;fill-rule:nonzero;stroke:none;font-family:Bitstream Vera Sans;-inkscape-font-specification:BitstreamVeraSans">50</tspan></text>
<g
       transform="matrix(1,0,0,-1,0,792)"
       id="g126"
       style="stroke-width:0.80000001;stroke-miterlimit:4;stroke-dasharray:none"><path
         id="path128"
         style="fill:none;stroke:#000000;stroke-width:0.80000001;stroke-linecap:square;stroke-linejoin:miter;stroke-miterlimit:4;stroke-opacity:1;stroke-dasharray:none"
         d="m 260.75,565 0,-5.148" /></g><g
       transform="matrix(1,0,0,-1,0,792)"
       id="g130"
       style="stroke-width:0.80000001;stroke-miterlimit:4;stroke-dasharray:none"><path
         id="path132"
         style="fill:none;stroke:#000000;stroke-width:0.80000001;stroke-linecap:square;stroke-linejoin:miter;stroke-miterlimit:4;stroke-opacity:1;stroke-dasharray:none"
         d="m 260.75,212.949 0,5.153" /></g><text
       id="text134"
       transform="scale(1,-1)"
       x="250.57031"
       y="-212.14844"
       style="stroke-width:0.80000001;stroke-miterlimit:4;stroke-dasharray:none"><tspan
         id="tspan136"
         sodipodi:role="line"
         y="-212.14844"
         x="250.57031 260.74631"
         style="font-size:16px;font-variant:normal;font-weight:normal;writing-mode:lr-tb;fill:#000000;fill-opacity:1;fill-rule:nonzero;stroke:none;font-family:Bitstream Vera Sans;-inkscape-font-specification:BitstreamVeraSans">55</tspan></text>
<g
       transform="matrix(1,0,0,-1,0,792)"
       id="g138"
       style="stroke-width:0.80000001;stroke-miterlimit:4;stroke-dasharray:none"><path
         id="path140"
         style="fill:none;stroke:#000000;stroke-width:0.80000001;stroke-linecap:square;stroke-linejoin:miter;stroke-miterlimit:4;stroke-opacity:1;stroke-dasharray:none"
         d="m 353.699,565 0,-5.148" /></g><g
       transform="matrix(1,0,0,-1,0,792)"
       id="g142"
       style="stroke-width:0.80000001;stroke-miterlimit:4;stroke-dasharray:none"><path
         id="path144"
         style="fill:none;stroke:#000000;stroke-width:0.80000001;stroke-linecap:square;stroke-linejoin:miter;stroke-miterlimit:4;stroke-opacity:1;stroke-dasharray:none"
         d="m 353.699,212.949 0,5.153" /></g><text
       id="text146"
       transform="scale(1,-1)"
       x="343.51953"
       y="-212.14844"
       style="stroke-width:0.80000001;stroke-miterlimit:4;stroke-dasharray:none"><tspan
         id="tspan148"
         sodipodi:role="line"
         y="-212.14844"
         x="343.51953 353.69553"
         style="font-size:16px;font-variant:normal;font-weight:normal;writing-mode:lr-tb;fill:#000000;fill-opacity:1;fill-rule:nonzero;stroke:none;font-family:Bitstream Vera Sans;-inkscape-font-specification:BitstreamVeraSans">60</tspan></text>
<g
       transform="matrix(1,0,0,-1,0,792)"
       id="g150"
       style="stroke-width:0.80000001;stroke-miterlimit:4;stroke-dasharray:none"><path
         id="path152"
         style="fill:none;stroke:#000000;stroke-width:0.80000001;stroke-linecap:square;stroke-linejoin:miter;stroke-miterlimit:4;stroke-opacity:1;stroke-dasharray:none"
         d="m 446.699,565 0,-5.148" /></g><g
       transform="matrix(1,0,0,-1,0,792)"
       id="g154"
       style="stroke-width:0.80000001;stroke-miterlimit:4;stroke-dasharray:none"><path
         id="path156"
         style="fill:none;stroke:#000000;stroke-width:0.80000001;stroke-linecap:square;stroke-linejoin:miter;stroke-miterlimit:4;stroke-opacity:1;stroke-dasharray:none"
         d="m 446.699,212.949 0,5.153" /></g><text
       id="text158"
       transform="scale(1,-1)"
       x="436.51953"
       y="-212.14844"
       style="stroke-width:0.80000001;stroke-miterlimit:4;stroke-dasharray:none"><tspan
         id="tspan160"
         sodipodi:role="line"
         y="-212.14844"
         x="436.51953 446.69553"
         style="font-size:16px;font-variant:normal;font-weight:normal;writing-mode:lr-tb;fill:#000000;fill-opacity:1;fill-rule:nonzero;stroke:none;font-family:Bitstream Vera Sans;-inkscape-font-specification:BitstreamVeraSans">65</tspan></text>
<g
       transform="matrix(1,0,0,-1,0,792)"
       id="g162"
       style="stroke-width:0.80000001;stroke-miterlimit:4;stroke-dasharray:none"><path
         id="path164"
         style="fill:none;stroke:#000000;stroke-width:0.80000001;stroke-linecap:square;stroke-linejoin:miter;stroke-miterlimit:4;stroke-opacity:1;stroke-dasharray:none"
         d="m 539.699,565 0,-5.148" /></g><g
       transform="matrix(1,0,0,-1,0,792)"
       id="g166"
       style="stroke-width:0.80000001;stroke-miterlimit:4;stroke-dasharray:none"><path
         id="path168"
         style="fill:none;stroke:#000000;stroke-width:0.80000001;stroke-linecap:square;stroke-linejoin:miter;stroke-miterlimit:4;stroke-opacity:1;stroke-dasharray:none"
         d="m 539.699,212.949 0,5.153" /></g><text
       id="text170"
       transform="scale(1,-1)"
       x="529.51953"
       y="-212.14844"
       style="stroke-width:0.80000001;stroke-miterlimit:4;stroke-dasharray:none"><tspan
         id="tspan172"
         sodipodi:role="line"
         y="-212.14844"
         x="529.51953 539.69556"
         style="font-size:16px;font-variant:normal;font-weight:normal;writing-mode:lr-tb;fill:#000000;fill-opacity:1;fill-rule:nonzero;stroke:none;font-family:Bitstream Vera Sans;-inkscape-font-specification:BitstreamVeraSans">70</tspan></text>
<g
       transform="matrix(1,0,0,-1,0,792)"
       id="g174"
       style="stroke-width:0.80000001;stroke-miterlimit:4;stroke-dasharray:none"><path
         id="path176"
         style="fill:none;stroke:#000000;stroke-width:0.80000001;stroke-linecap:square;stroke-linejoin:miter;stroke-miterlimit:4;stroke-opacity:1;stroke-dasharray:none"
         d="m 93.352,212.949 0,352.051 446.347,0 0,-352.051 -446.347,0" /></g><text
       id="text178"
       transform="matrix(0,1,1,0,0,0)"
       x="289.79297"
       y="63.012447"
       style="stroke-width:0.80000001;stroke-miterlimit:4;stroke-dasharray:none"><tspan
         id="tspan180"
         sodipodi:role="line"
         y="63.012447"
         x="289.79297 300.76898 305.20096 314.99298 323.31296 328.68896 338.83298 345.10498 354.89697 365.02496 375.16898 384.96097 391.53699 401.68097 406.75296 419.07297 428.91296 438.36899 442.80096 452.78516 459.05716 463.48917 473.26517 483.39316 488.46518 494.70517 509.90518"
         style="font-size:16px;font-variant:normal;font-weight:normal;writing-mode:lr-tb;fill:#000000;fill-opacity:1;fill-rule:nonzero;stroke:none;font-family:Bitstream Vera Sans;-inkscape-font-specification:BitstreamVeraSans">Bias/Standard Deviation (%)</tspan></text>
<text
       id="text182"
       transform="scale(1,-1)"
       x="213.55469"
       y="-191.06786"><tspan
         id="tspan184"
         sodipodi:role="line"
         y="-191.06786"
         x="213.55469 225.87469 230.30669 238.62669 244.8987 254.69069 264.8187 273.60269 283.44269 288.51468 294.78668 304.56268 309.6347 319.77869 329.90668 336.4827 342.11469 351.90671 360.6907 370.5307 375.78906 382.02905 397.61307 413.19705"
         style="font-size:16px;font-variant:normal;font-weight:normal;writing-mode:lr-tb;fill:#000000;fill-opacity:1;fill-rule:nonzero;stroke:none;font-family:Bitstream Vera Sans;-inkscape-font-specification:BitstreamVeraSans">Distance to Surface (mm)</tspan></text>
<g
       transform="matrix(1,0,0,-1,0,792)"
       id="g186"
       style="stroke-width:0.80000001;stroke-miterlimit:4;stroke-dasharray:none"><path
         id="path188"
         style="fill:none;stroke:#0000ff;stroke-width:0.80000001;stroke-linecap:square;stroke-linejoin:miter;stroke-miterlimit:4;stroke-opacity:1;stroke-dasharray:none"
         d="m 204.949,439.449 0,-141.398" /></g><g
       transform="matrix(1,0,0,-1,0,792)"
       id="g190"
       style="stroke-width:0.80000001;stroke-miterlimit:4;stroke-dasharray:none"><path
         id="path192"
         style="fill:none;stroke:#0000ff;stroke-width:0.80000001;stroke-linecap:square;stroke-linejoin:miter;stroke-miterlimit:4;stroke-opacity:1;stroke-dasharray:none"
         d="m 203.102,439.449 3.699,0" /></g><g
       transform="matrix(1,0,0,-1,0,792)"
       id="g194"
       style="stroke-width:0.80000001;stroke-miterlimit:4;stroke-dasharray:none"><path
         id="path196"
         style="fill:none;stroke:#0000ff;stroke-width:0.80000001;stroke-linecap:square;stroke-linejoin:miter;stroke-miterlimit:4;stroke-opacity:1;stroke-dasharray:none"
         d="m 203.102,298.051 3.699,0" /></g><g
       transform="matrix(1,0,0,-1,0,792)"
       id="g198"
       style="stroke-width:0.80000001;stroke-miterlimit:4;stroke-dasharray:none"><path
         id="path200"
         style="fill:none;stroke:#0000ff;stroke-width:0.80000001;stroke-linecap:square;stroke-linejoin:miter;stroke-miterlimit:4;stroke-opacity:1;stroke-dasharray:none"
         d="m 294.199,437.051 0,-176.551" /></g><g
       transform="matrix(1,0,0,-1,0,792)"
       id="g202"
       style="stroke-width:0.80000001;stroke-miterlimit:4;stroke-dasharray:none"><path
         id="path204"
         style="fill:none;stroke:#0000ff;stroke-width:0.80000001;stroke-linecap:square;stroke-linejoin:miter;stroke-miterlimit:4;stroke-opacity:1;stroke-dasharray:none"
         d="m 292.352,437.051 3.699,0" /></g><g
       transform="matrix(1,0,0,-1,0,792)"
       id="g206"
       style="stroke-width:0.80000001;stroke-miterlimit:4;stroke-dasharray:none"><path
         id="path208"
         style="fill:none;stroke:#0000ff;stroke-width:0.80000001;stroke-linecap:square;stroke-linejoin:miter;stroke-miterlimit:4;stroke-opacity:1;stroke-dasharray:none"
         d="m 292.352,260.5 3.699,0" /></g><g
       transform="matrix(1,0,0,-1,0,792)"
       id="g210"
       style="stroke-width:0.80000001;stroke-miterlimit:4;stroke-dasharray:none"><path
         id="path212"
         style="fill:none;stroke:#0000ff;stroke-width:0.80000001;stroke-linecap:square;stroke-linejoin:miter;stroke-miterlimit:4;stroke-opacity:1;stroke-dasharray:none"
         d="m 390.898,536 0,-34.148" /></g><g
       transform="matrix(1,0,0,-1,0,792)"
       id="g214"
       style="stroke-width:0.80000001;stroke-miterlimit:4;stroke-dasharray:none"><path
         id="path216"
         style="fill:none;stroke:#0000ff;stroke-width:0.80000001;stroke-linecap:square;stroke-linejoin:miter;stroke-miterlimit:4;stroke-opacity:1;stroke-dasharray:none"
         d="m 389.051,536 3.699,0" /></g><g
       transform="matrix(1,0,0,-1,0,792)"
       id="g218"
       style="stroke-width:0.80000001;stroke-miterlimit:4;stroke-dasharray:none"><path
         id="path220"
         style="fill:none;stroke:#0000ff;stroke-width:0.80000001;stroke-linecap:square;stroke-linejoin:miter;stroke-miterlimit:4;stroke-opacity:1;stroke-dasharray:none"
         d="m 389.051,501.852 3.699,0" /></g><g
       transform="matrix(1,0,0,-1,0,792)"
       id="g222"
       style="stroke-width:0.80000001;stroke-miterlimit:4;stroke-dasharray:none"><path
         id="path224"
         style="fill:none;stroke:#0000ff;stroke-width:0.80000001;stroke-linecap:square;stroke-linejoin:miter;stroke-miterlimit:4;stroke-opacity:1;stroke-dasharray:none"
         d="m 483.898,511.398 0,-76" /></g><g
       transform="matrix(1,0,0,-1,0,792)"
       id="g226"
       style="stroke-width:0.80000001;stroke-miterlimit:4;stroke-dasharray:none"><path
         id="path228"
         style="fill:none;stroke:#0000ff;stroke-width:0.80000001;stroke-linecap:square;stroke-linejoin:miter;stroke-miterlimit:4;stroke-opacity:1;stroke-dasharray:none"
         d="m 482.051,511.398 3.699,0" /></g><g
       transform="matrix(1,0,0,-1,0,792)"
       id="g230"
       style="stroke-width:0.80000001;stroke-miterlimit:4;stroke-dasharray:none"><path
         id="path232"
         style="fill:none;stroke:#0000ff;stroke-width:0.80000001;stroke-linecap:square;stroke-linejoin:miter;stroke-miterlimit:4;stroke-opacity:1;stroke-dasharray:none"
         d="m 482.051,435.398 3.699,0" /></g><path
       id="path234"
       style="fill:#0000ff;fill-opacity:1;fill-rule:nonzero;stroke:none"
       d="m 205.449,423.25 c 0,-0.668 -1,-0.668 -1,0 0,0.668 1,0.668 1,0" /><g
       transform="matrix(1,0,0,-1,0,792)"
       id="g236"
       style="stroke-width:0.80000001;stroke-miterlimit:4;stroke-dasharray:none"><path
         id="path238"
         style="fill:none;stroke:#0000ff;stroke-width:0.80000001;stroke-linecap:square;stroke-linejoin:miter;stroke-miterlimit:4;stroke-opacity:1;stroke-dasharray:none"
         d="m 201.949,368.75 6,0" /></g><g
       transform="matrix(1,0,0,-1,0,792)"
       id="g240"
       style="stroke-width:0.80000001;stroke-miterlimit:4;stroke-dasharray:none"><path
         id="path242"
         style="fill:none;stroke:#0000ff;stroke-width:0.80000001;stroke-linecap:square;stroke-linejoin:miter;stroke-miterlimit:4;stroke-opacity:1;stroke-dasharray:none"
         d="m 204.949,365.75 0,6" /></g><path
       id="path244"
       style="fill:#0000ff;fill-opacity:1;fill-rule:nonzero;stroke:none"
       d="m 294.699,443.25 c 0,-0.668 -1,-0.668 -1,0 0,0.668 1,0.668 1,0" /><g
       transform="matrix(1,0,0,-1,0,792)"
       id="g246"
       style="stroke-width:0.80000001;stroke-miterlimit:4;stroke-dasharray:none"><path
         id="path248"
         style="fill:none;stroke:#0000ff;stroke-width:0.80000001;stroke-linecap:square;stroke-linejoin:miter;stroke-miterlimit:4;stroke-opacity:1;stroke-dasharray:none"
         d="m 291.199,348.75 6,0" /></g><g
       transform="matrix(1,0,0,-1,0,792)"
       id="g250"
       style="stroke-width:0.80000001;stroke-miterlimit:4;stroke-dasharray:none"><path
         id="path252"
         style="fill:none;stroke:#0000ff;stroke-width:0.80000001;stroke-linecap:square;stroke-linejoin:miter;stroke-miterlimit:4;stroke-opacity:1;stroke-dasharray:none"
         d="m 294.199,345.75 0,6" /></g><path
       id="path254"
       style="fill:#0000ff;fill-opacity:1;fill-rule:nonzero;stroke:none"
       d="m 391.398,273.051 c 0,-0.668 -1,-0.668 -1,0 0,0.664 1,0.664 1,0" /><g
       transform="matrix(1,0,0,-1,0,792)"
       id="g256"
       style="stroke-width:0.80000001;stroke-miterlimit:4;stroke-dasharray:none"><path
         id="path258"
         style="fill:none;stroke:#0000ff;stroke-width:0.80000001;stroke-linecap:square;stroke-linejoin:miter;stroke-miterlimit:4;stroke-opacity:1;stroke-dasharray:none"
         d="m 387.898,518.949 6,0" /></g><g
       transform="matrix(1,0,0,-1,0,792)"
       id="g260"
       style="stroke-width:0.80000001;stroke-miterlimit:4;stroke-dasharray:none"><path
         id="path262"
         style="fill:none;stroke:#0000ff;stroke-width:0.80000001;stroke-linecap:square;stroke-linejoin:miter;stroke-miterlimit:4;stroke-opacity:1;stroke-dasharray:none"
         d="m 390.898,515.949 0,6" /></g><path
       id="path264"
       style="fill:#0000ff;fill-opacity:1;fill-rule:nonzero;stroke:none"
       d="m 484.398,318.602 c 0,-0.668 -1,-0.668 -1,0 0,0.664 1,0.664 1,0" /><g
       transform="matrix(1,0,0,-1,0,792)"
       id="g266"
       style="stroke-width:0.80000001;stroke-miterlimit:4;stroke-dasharray:none"><path
         id="path268"
         style="fill:none;stroke:#0000ff;stroke-width:0.80000001;stroke-linecap:square;stroke-linejoin:miter;stroke-miterlimit:4;stroke-opacity:1;stroke-dasharray:none"
         d="m 480.898,473.398 6,0" /></g><g
       transform="matrix(1,0,0,-1,0,792)"
       id="g270"
       style="stroke-width:0.80000001;stroke-miterlimit:4;stroke-dasharray:none"><path
         id="path272"
         style="fill:none;stroke:#0000ff;stroke-width:0.80000001;stroke-linecap:square;stroke-linejoin:miter;stroke-miterlimit:4;stroke-opacity:1;stroke-dasharray:none"
         d="m 483.898,470.398 0,6" /></g><text
       id="text274"
       transform="scale(1,-1)"
       x="431.20703"
       y="-557.07324"
       style="stroke-width:0.80000001;stroke-miterlimit:4;stroke-dasharray:none"><tspan
         id="tspan276"
         sodipodi:role="line"
         y="-557.07324"
         x="431.20703 442.37503 452.16702 458.74304 468.88702 478.72702 484.99902 490.07101"
         style="font-size:16px;font-variant:normal;font-weight:normal;writing-mode:lr-tb;fill:#000000;fill-opacity:1;fill-rule:nonzero;stroke:none;font-family:Bitstream Vera Sans;-inkscape-font-specification:BitstreamVeraSans">Carpet 1</tspan></text>
<g
       transform="matrix(1,0,0,-1,0,783.92479)"
       id="g278"
       style="stroke-width:0.80000001;stroke-miterlimit:4;stroke-dasharray:none"><path
         id="path280"
         style="fill:none;stroke:#0000ff;stroke-width:0.80000001;stroke-linecap:square;stroke-linejoin:miter;stroke-miterlimit:4;stroke-opacity:1;stroke-dasharray:none"
         d="m 505.398,221.301 24.102,0" /></g><g
       transform="matrix(1,0,0,-1,0,792)"
       id="g282"
       style="stroke-width:0.80000001;stroke-miterlimit:4;stroke-dasharray:none"><path
         id="path284"
         style="fill:none;stroke:#0000ff;stroke-width:0.80000001;stroke-linecap:square;stroke-linejoin:miter;stroke-miterlimit:4;stroke-opacity:1;stroke-dasharray:none"
         d="m 204.949,368.75 89.25,-20 96.699,170.199 93,-45.551" /></g><g
       transform="matrix(1,0,0,-1,0,792)"
       id="g286"
       style="stroke-width:0.80000001;stroke-miterlimit:4;stroke-dasharray:none"><path
         id="path288"
         style="fill:none;stroke:#ff0000;stroke-width:0.80000001;stroke-linecap:square;stroke-linejoin:miter;stroke-miterlimit:4;stroke-opacity:1;stroke-dasharray:none"
         d="m 167.75,492.801 0,-115.852" /></g><g
       transform="matrix(1,0,0,-1,0,792)"
       id="g290"
       style="stroke-width:0.80000001;stroke-miterlimit:4;stroke-dasharray:none"><path
         id="path292"
         style="fill:none;stroke:#ff0000;stroke-width:0.80000001;stroke-linecap:square;stroke-linejoin:miter;stroke-miterlimit:4;stroke-opacity:1;stroke-dasharray:none"
         d="m 165.898,492.801 3.704,0" /></g><g
       transform="matrix(1,0,0,-1,0,792)"
       id="g294"
       style="stroke-width:0.80000001;stroke-miterlimit:4;stroke-dasharray:none"><path
         id="path296"
         style="fill:none;stroke:#ff0000;stroke-width:0.80000001;stroke-linecap:square;stroke-linejoin:miter;stroke-miterlimit:4;stroke-opacity:1;stroke-dasharray:none"
         d="m 165.898,376.949 3.704,0" /></g><g
       transform="matrix(1,0,0,-1,0,792)"
       id="g298"
       style="stroke-width:0.80000001;stroke-miterlimit:4;stroke-dasharray:none"><path
         id="path300"
         style="fill:none;stroke:#ff0000;stroke-width:0.80000001;stroke-linecap:square;stroke-linejoin:miter;stroke-miterlimit:4;stroke-opacity:1;stroke-dasharray:none"
         d="m 301.648,452.648 0,-139.796" /></g><g
       transform="matrix(1,0,0,-1,0,792)"
       id="g302"
       style="stroke-width:0.80000001;stroke-miterlimit:4;stroke-dasharray:none"><path
         id="path304"
         style="fill:none;stroke:#ff0000;stroke-width:0.80000001;stroke-linecap:square;stroke-linejoin:miter;stroke-miterlimit:4;stroke-opacity:1;stroke-dasharray:none"
         d="m 299.801,452.648 3.699,0" /></g><g
       transform="matrix(1,0,0,-1,0,792)"
       id="g306"
       style="stroke-width:0.80000001;stroke-miterlimit:4;stroke-dasharray:none"><path
         id="path308"
         style="fill:none;stroke:#ff0000;stroke-width:0.80000001;stroke-linecap:square;stroke-linejoin:miter;stroke-miterlimit:4;stroke-opacity:1;stroke-dasharray:none"
         d="m 299.801,312.852 3.699,0" /></g><g
       transform="matrix(1,0,0,-1,0,792)"
       id="g310"
       style="stroke-width:0.80000001;stroke-miterlimit:4;stroke-dasharray:none"><path
         id="path312"
         style="fill:none;stroke:#ff0000;stroke-width:0.80000001;stroke-linecap:square;stroke-linejoin:miter;stroke-miterlimit:4;stroke-opacity:1;stroke-dasharray:none"
         d="m 465.301,464.199 0,-157.648" /></g><g
       transform="matrix(1,0,0,-1,0,792)"
       id="g314"
       style="stroke-width:0.80000001;stroke-miterlimit:4;stroke-dasharray:none"><path
         id="path316"
         style="fill:none;stroke:#ff0000;stroke-width:0.80000001;stroke-linecap:square;stroke-linejoin:miter;stroke-miterlimit:4;stroke-opacity:1;stroke-dasharray:none"
         d="m 463.449,464.199 3.699,0" /></g><g
       transform="matrix(1,0,0,-1,0,792)"
       id="g318"
       style="stroke-width:0.80000001;stroke-miterlimit:4;stroke-dasharray:none"><path
         id="path320"
         style="fill:none;stroke:#ff0000;stroke-width:0.80000001;stroke-linecap:square;stroke-linejoin:miter;stroke-miterlimit:4;stroke-opacity:1;stroke-dasharray:none"
         d="m 463.449,306.551 3.699,0" /></g><path
       id="path322"
       style="fill:#ff0000;fill-opacity:1;fill-rule:nonzero;stroke:none"
       d="m 168.25,357.148 c 0,-0.664 -1,-0.664 -1,0 0,0.668 1,0.668 1,0" /><g
       transform="matrix(1,0,0,-1,0,792)"
       id="g324"
       style="stroke-width:0.80000001;stroke-miterlimit:4;stroke-dasharray:none"><path
         id="path326"
         style="fill:none;stroke:#ff0000;stroke-width:0.80000001;stroke-linecap:square;stroke-linejoin:miter;stroke-miterlimit:4;stroke-opacity:1;stroke-dasharray:none"
         d="m 164.75,434.852 6,0" /></g><g
       transform="matrix(1,0,0,-1,0,792)"
       id="g328"
       style="stroke-width:0.80000001;stroke-miterlimit:4;stroke-dasharray:none"><path
         id="path330"
         style="fill:none;stroke:#ff0000;stroke-width:0.80000001;stroke-linecap:square;stroke-linejoin:miter;stroke-miterlimit:4;stroke-opacity:1;stroke-dasharray:none"
         d="m 167.75,431.852 0,6" /></g><g
       transform="matrix(1,0,0,-1,0,792)"
       id="g332"
       style="stroke-width:0.80000001;stroke-miterlimit:4;stroke-dasharray:none"><path
         id="path334"
         style="fill:none;stroke:#ff0000;stroke-width:0.80000001;stroke-linecap:square;stroke-linejoin:miter;stroke-miterlimit:4;stroke-opacity:1;stroke-dasharray:none"
         d="m 164.75,431.852 6,6" /></g><g
       transform="matrix(1,0,0,-1,0,792)"
       id="g336"
       style="stroke-width:0.80000001;stroke-miterlimit:4;stroke-dasharray:none"><path
         id="path338"
         style="fill:none;stroke:#ff0000;stroke-width:0.80000001;stroke-linecap:square;stroke-linejoin:miter;stroke-miterlimit:4;stroke-opacity:1;stroke-dasharray:none"
         d="m 164.75,437.852 6,-6" /></g><path
       id="path340"
       style="fill:#ff0000;fill-opacity:1;fill-rule:nonzero;stroke:none"
       d="m 302.148,409.25 c 0,-0.668 -1,-0.668 -1,0 0,0.668 1,0.668 1,0" /><g
       transform="matrix(1,0,0,-1,0,792)"
       id="g342"
       style="stroke-width:0.80000001;stroke-miterlimit:4;stroke-dasharray:none"><path
         id="path344"
         style="fill:none;stroke:#ff0000;stroke-width:0.80000001;stroke-linecap:square;stroke-linejoin:miter;stroke-miterlimit:4;stroke-opacity:1;stroke-dasharray:none"
         d="m 298.648,382.75 6,0" /></g><g
       transform="matrix(1,0,0,-1,0,792)"
       id="g346"
       style="stroke-width:0.80000001;stroke-miterlimit:4;stroke-dasharray:none"><path
         id="path348"
         style="fill:none;stroke:#ff0000;stroke-width:0.80000001;stroke-linecap:square;stroke-linejoin:miter;stroke-miterlimit:4;stroke-opacity:1;stroke-dasharray:none"
         d="m 301.648,379.75 0,6" /></g><g
       transform="matrix(1,0,0,-1,0,792)"
       id="g350"
       style="stroke-width:0.80000001;stroke-miterlimit:4;stroke-dasharray:none"><path
         id="path352"
         style="fill:none;stroke:#ff0000;stroke-width:0.80000001;stroke-linecap:square;stroke-linejoin:miter;stroke-miterlimit:4;stroke-opacity:1;stroke-dasharray:none"
         d="m 298.648,379.75 6,6" /></g><g
       transform="matrix(1,0,0,-1,0,792)"
       id="g354"
       style="stroke-width:0.80000001;stroke-miterlimit:4;stroke-dasharray:none"><path
         id="path356"
         style="fill:none;stroke:#ff0000;stroke-width:0.80000001;stroke-linecap:square;stroke-linejoin:miter;stroke-miterlimit:4;stroke-opacity:1;stroke-dasharray:none"
         d="m 298.648,385.75 6,-6" /></g><path
       id="path358"
       style="fill:#ff0000;fill-opacity:1;fill-rule:nonzero;stroke:none"
       d="m 465.801,406.648 c 0,-0.664 -1,-0.664 -1,0 0,0.668 1,0.668 1,0" /><g
       transform="matrix(1,0,0,-1,0,792)"
       id="g360"
       style="stroke-width:0.80000001;stroke-miterlimit:4;stroke-dasharray:none"><path
         id="path362"
         style="fill:none;stroke:#ff0000;stroke-width:0.80000001;stroke-linecap:square;stroke-linejoin:miter;stroke-miterlimit:4;stroke-opacity:1;stroke-dasharray:none"
         d="m 462.301,385.352 6,0" /></g><g
       transform="matrix(1,0,0,-1,0,792)"
       id="g364"
       style="stroke-width:0.80000001;stroke-miterlimit:4;stroke-dasharray:none"><path
         id="path366"
         style="fill:none;stroke:#ff0000;stroke-width:0.80000001;stroke-linecap:square;stroke-linejoin:miter;stroke-miterlimit:4;stroke-opacity:1;stroke-dasharray:none"
         d="m 465.301,382.352 0,6" /></g><g
       transform="matrix(1,0,0,-1,0,792)"
       id="g368"
       style="stroke-width:0.80000001;stroke-miterlimit:4;stroke-dasharray:none"><path
         id="path370"
         style="fill:none;stroke:#ff0000;stroke-width:0.80000001;stroke-linecap:square;stroke-linejoin:miter;stroke-miterlimit:4;stroke-opacity:1;stroke-dasharray:none"
         d="m 462.301,382.352 6,6" /></g><g
       transform="matrix(1,0,0,-1,0,792)"
       id="g372"
       style="stroke-width:0.80000001;stroke-miterlimit:4;stroke-dasharray:none"><path
         id="path374"
         style="fill:none;stroke:#ff0000;stroke-width:0.80000001;stroke-linecap:square;stroke-linejoin:miter;stroke-miterlimit:4;stroke-opacity:1;stroke-dasharray:none"
         d="m 462.301,388.352 6,-6" /></g><text
       id="text376"
       transform="scale(1,-1)"
       x="431.20703"
       y="-535.71204"
       style="stroke-width:0.80000001;stroke-miterlimit:4;stroke-dasharray:none"><tspan
         id="tspan378"
         sodipodi:role="line"
         y="-535.71204"
         x="431.20703 442.37503 452.16702 458.74304 468.88702 478.72702 484.99902 490.07101"
         style="font-size:16px;font-variant:normal;font-weight:normal;writing-mode:lr-tb;fill:#000000;fill-opacity:1;fill-rule:nonzero;stroke:none;font-family:Bitstream Vera Sans;-inkscape-font-specification:BitstreamVeraSans">Carpet 3</tspan></text>
<g
       transform="matrix(1,0,0,-1,0,771.86441)"
       id="g380"
       style="stroke-width:0.80000001;stroke-miterlimit:4;stroke-dasharray:none"><path
         id="path382"
         style="fill:none;stroke:#ff0000;stroke-width:0.80000001;stroke-linecap:square;stroke-linejoin:miter;stroke-miterlimit:4;stroke-opacity:1;stroke-dasharray:none"
         d="m 505.398,230.602 24.102,0" /></g><g
       transform="matrix(1,0,0,-1,0,792)"
       id="g384"
       style="stroke-width:0.80000001;stroke-miterlimit:4;stroke-dasharray:none"><path
         id="path386"
         style="fill:none;stroke:#ff0000;stroke-width:0.80000001;stroke-linecap:square;stroke-linejoin:miter;stroke-miterlimit:4;stroke-opacity:1;stroke-dasharray:none"
         d="m 167.75,434.852 133.898,-52.102 163.653,2.602" /></g></g></svg>