<?xml version="1.0" encoding="UTF-8" standalone="no"?>
<!-- Created with Inkscape (http://www.inkscape.org/) -->

<svg
   xmlns:dc="http://purl.org/dc/elements/1.1/"
   xmlns:cc="http://creativecommons.org/ns#"
   xmlns:rdf="http://www.w3.org/1999/02/22-rdf-syntax-ns#"
   xmlns:svg="http://www.w3.org/2000/svg"
   xmlns="http://www.w3.org/2000/svg"
   xmlns:sodipodi="http://sodipodi.sourceforge.net/DTD/sodipodi-0.dtd"
   xmlns:inkscape="http://www.inkscape.org/namespaces/inkscape"
   id="svg2"
   version="1.1"
   inkscape:version="0.47 r22583"
   width="640.11804"
   height="496.47247"
   xml:space="preserve"
   sodipodi:docname="T3_dist.pdf"><metadata
     id="metadata8"><rdf:RDF><cc:Work
         rdf:about=""><dc:format>image/svg+xml</dc:format><dc:type
           rdf:resource="http://purl.org/dc/dcmitype/StillImage" /><dc:title></dc:title></cc:Work></rdf:RDF></metadata><defs
     id="defs6"><inkscape:perspective
       sodipodi:type="inkscape:persp3d"
       inkscape:vp_x="0 : 0.5 : 1"
       inkscape:vp_y="0 : 1000 : 0"
       inkscape:vp_z="1 : 0.5 : 1"
       inkscape:persp3d-origin="0.5 : 0.33333333 : 1"
       id="perspective10" /></defs><sodipodi:namedview
     pagecolor="#ffffff"
     bordercolor="#666666"
     borderopacity="1"
     objecttolerance="10"
     gridtolerance="10"
     guidetolerance="10"
     inkscape:pageopacity="0"
     inkscape:pageshadow="2"
     inkscape:window-width="1274"
     inkscape:window-height="948"
     id="namedview4"
     showgrid="false"
     inkscape:zoom="0.67425131"
     inkscape:cx="292.04421"
     inkscape:cy="201.05185"
     inkscape:window-x="1280"
     inkscape:window-y="0"
     inkscape:window-maximized="1"
     inkscape:current-layer="g12" /><g
     id="g12"
     inkscape:groupmode="layer"
     inkscape:label="T3_dist"
     transform="matrix(1.25,0,0,-1.25,-35.005713,731.71875)"><g
       transform="matrix(1,0,0,-1,0,792)"
       id="g18"
       style="stroke-width:0.80000001;stroke-miterlimit:4;stroke-dasharray:none"><path
         id="path20"
         style="fill:none;stroke:#000000;stroke-width:0.80000001;stroke-linecap:square;stroke-linejoin:miter;stroke-miterlimit:4;stroke-opacity:1;stroke-dasharray:none"
         d="m 93.352,565 5.148,0" /></g><g
       transform="matrix(1,0,0,-1,0,792)"
       id="g22"
       style="stroke-width:0.80000001;stroke-miterlimit:4;stroke-dasharray:none"><path
         id="path24"
         style="fill:none;stroke:#000000;stroke-width:0.80000001;stroke-linecap:square;stroke-linejoin:miter;stroke-miterlimit:4;stroke-opacity:1;stroke-dasharray:none"
         d="m 539.699,565 -5.148,0" /></g><text
       id="text26"
       transform="scale(1,-1)"
       x="52.625"
       y="-221.44922"><tspan
         id="tspan28"
         sodipodi:role="line"
         y="-221.44922"
         x="52.625 62.800999 67.873001 78.048996"
         style="font-size:16px;font-variant:normal;font-weight:normal;writing-mode:lr-tb;fill:#000000;fill-opacity:1;fill-rule:nonzero;stroke:none;font-family:Bitstream Vera Sans;-inkscape-font-specification:BitstreamVeraSans-Roman">0.97</tspan></text>
<g
       transform="matrix(1,0,0,-1,0,792)"
       id="g30"
       style="stroke-width:0.80000001;stroke-miterlimit:4;stroke-dasharray:none"><path
         id="path32"
         style="fill:none;stroke:#000000;stroke-width:0.80000001;stroke-linecap:square;stroke-linejoin:miter;stroke-miterlimit:4;stroke-opacity:1;stroke-dasharray:none"
         d="m 93.352,506.301 5.148,0" /></g><g
       transform="matrix(1,0,0,-1,0,792)"
       id="g34"
       style="stroke-width:0.80000001;stroke-miterlimit:4;stroke-dasharray:none"><path
         id="path36"
         style="fill:none;stroke:#000000;stroke-width:0.80000001;stroke-linecap:square;stroke-linejoin:miter;stroke-miterlimit:4;stroke-opacity:1;stroke-dasharray:none"
         d="m 539.699,506.301 -5.148,0" /></g><text
       id="text38"
       transform="scale(1,-1)"
       x="52.625"
       y="-280.14844"><tspan
         id="tspan40"
         sodipodi:role="line"
         y="-280.14844"
         x="52.625 62.800999 67.873001 78.048996"
         style="font-size:16px;font-variant:normal;font-weight:normal;writing-mode:lr-tb;fill:#000000;fill-opacity:1;fill-rule:nonzero;stroke:none;font-family:Bitstream Vera Sans;-inkscape-font-specification:BitstreamVeraSans-Roman">0.98</tspan></text>
<g
       transform="matrix(1,0,0,-1,0,792)"
       id="g42"
       style="stroke-width:0.80000001;stroke-miterlimit:4;stroke-dasharray:none"><path
         id="path44"
         style="fill:none;stroke:#000000;stroke-width:0.80000001;stroke-linecap:square;stroke-linejoin:miter;stroke-miterlimit:4;stroke-opacity:1;stroke-dasharray:none"
         d="m 93.352,447.648 5.148,0" /></g><g
       transform="matrix(1,0,0,-1,0,792)"
       id="g46"
       style="stroke-width:0.80000001;stroke-miterlimit:4;stroke-dasharray:none"><path
         id="path48"
         style="fill:none;stroke:#000000;stroke-width:0.80000001;stroke-linecap:square;stroke-linejoin:miter;stroke-miterlimit:4;stroke-opacity:1;stroke-dasharray:none"
         d="m 539.699,447.648 -5.148,0" /></g><text
       id="text50"
       transform="scale(1,-1)"
       x="52.625"
       y="-338.79688"><tspan
         id="tspan52"
         sodipodi:role="line"
         y="-338.79688"
         x="52.625 62.800999 67.873001 78.048996"
         style="font-size:16px;font-variant:normal;font-weight:normal;writing-mode:lr-tb;fill:#000000;fill-opacity:1;fill-rule:nonzero;stroke:none;font-family:Bitstream Vera Sans;-inkscape-font-specification:BitstreamVeraSans-Roman">0.99</tspan></text>
<g
       transform="matrix(1,0,0,-1,0,792)"
       id="g54"
       style="stroke-width:0.80000001;stroke-miterlimit:4;stroke-dasharray:none"><path
         id="path56"
         style="fill:none;stroke:#000000;stroke-width:0.80000001;stroke-linecap:square;stroke-linejoin:miter;stroke-miterlimit:4;stroke-opacity:1;stroke-dasharray:none"
         d="m 93.352,388.949 5.148,0" /></g><g
       transform="matrix(1,0,0,-1,0,792)"
       id="g58"
       style="stroke-width:0.80000001;stroke-miterlimit:4;stroke-dasharray:none"><path
         id="path60"
         style="fill:none;stroke:#000000;stroke-width:0.80000001;stroke-linecap:square;stroke-linejoin:miter;stroke-miterlimit:4;stroke-opacity:1;stroke-dasharray:none"
         d="m 539.699,388.949 -5.148,0" /></g><text
       id="text62"
       transform="scale(1,-1)"
       x="78.070312"
       y="-397.5"><tspan
         id="tspan64"
         y="-397.5"
         x="78.070312"
         style="font-size:16px;font-variant:normal;font-weight:normal;writing-mode:lr-tb;fill:#000000;fill-opacity:1;fill-rule:nonzero;stroke:none;font-family:Bitstream Vera Sans;-inkscape-font-specification:BitstreamVeraSans-Roman">1</tspan></text>
<g
       transform="matrix(1,0,0,-1,0,792)"
       id="g66"
       style="stroke-width:0.80000001;stroke-miterlimit:4;stroke-dasharray:none"><path
         id="path68"
         style="fill:none;stroke:#000000;stroke-width:0.80000001;stroke-linecap:square;stroke-linejoin:miter;stroke-miterlimit:4;stroke-opacity:1;stroke-dasharray:none"
         d="m 93.352,330.301 5.148,0" /></g><g
       transform="matrix(1,0,0,-1,0,792)"
       id="g70"
       style="stroke-width:0.80000001;stroke-miterlimit:4;stroke-dasharray:none"><path
         id="path72"
         style="fill:none;stroke:#000000;stroke-width:0.80000001;stroke-linecap:square;stroke-linejoin:miter;stroke-miterlimit:4;stroke-opacity:1;stroke-dasharray:none"
         d="m 539.699,330.301 -5.148,0" /></g><text
       id="text74"
       transform="scale(1,-1)"
       x="52.625"
       y="-456.14844"><tspan
         id="tspan76"
         sodipodi:role="line"
         y="-456.14844"
         x="52.625 62.800999 67.873001 78.048996"
         style="font-size:16px;font-variant:normal;font-weight:normal;writing-mode:lr-tb;fill:#000000;fill-opacity:1;fill-rule:nonzero;stroke:none;font-family:Bitstream Vera Sans;-inkscape-font-specification:BitstreamVeraSans-Roman">1.01</tspan></text>
<g
       transform="matrix(1,0,0,-1,0,792)"
       id="g78"
       style="stroke-width:0.80000001;stroke-miterlimit:4;stroke-dasharray:none"><path
         id="path80"
         style="fill:none;stroke:#000000;stroke-width:0.80000001;stroke-linecap:square;stroke-linejoin:miter;stroke-miterlimit:4;stroke-opacity:1;stroke-dasharray:none"
         d="m 93.352,271.602 5.148,0" /></g><g
       transform="matrix(1,0,0,-1,0,792)"
       id="g82"
       style="stroke-width:0.80000001;stroke-miterlimit:4;stroke-dasharray:none"><path
         id="path84"
         style="fill:none;stroke:#000000;stroke-width:0.80000001;stroke-linecap:square;stroke-linejoin:miter;stroke-miterlimit:4;stroke-opacity:1;stroke-dasharray:none"
         d="m 539.699,271.602 -5.148,0" /></g><text
       id="text86"
       transform="scale(1,-1)"
       x="52.625"
       y="-514.84766"><tspan
         id="tspan88"
         sodipodi:role="line"
         y="-514.84766"
         x="52.625 62.800999 67.873001 78.048996"
         style="font-size:16px;font-variant:normal;font-weight:normal;writing-mode:lr-tb;fill:#000000;fill-opacity:1;fill-rule:nonzero;stroke:none;font-family:Bitstream Vera Sans;-inkscape-font-specification:BitstreamVeraSans-Roman">1.02</tspan></text>
<g
       transform="matrix(1,0,0,-1,0,792)"
       id="g90"
       style="stroke-width:0.80000001;stroke-miterlimit:4;stroke-dasharray:none"><path
         id="path92"
         style="fill:none;stroke:#000000;stroke-width:0.80000001;stroke-linecap:square;stroke-linejoin:miter;stroke-miterlimit:4;stroke-opacity:1;stroke-dasharray:none"
         d="m 93.352,212.949 5.148,0" /></g><g
       transform="matrix(1,0,0,-1,0,792)"
       id="g94"
       style="stroke-width:0.80000001;stroke-miterlimit:4;stroke-dasharray:none"><path
         id="path96"
         style="fill:none;stroke:#000000;stroke-width:0.80000001;stroke-linecap:square;stroke-linejoin:miter;stroke-miterlimit:4;stroke-opacity:1;stroke-dasharray:none"
         d="m 539.699,212.949 -5.148,0" /></g><text
       id="text98"
       transform="scale(1,-1)"
       x="52.625"
       y="-573.5"><tspan
         id="tspan100"
         sodipodi:role="line"
         y="-573.5"
         x="52.625 62.800999 67.873001 78.048996"
         style="font-size:16px;font-variant:normal;font-weight:normal;writing-mode:lr-tb;fill:#000000;fill-opacity:1;fill-rule:nonzero;stroke:none;font-family:Bitstream Vera Sans;-inkscape-font-specification:BitstreamVeraSans-Roman">1.03</tspan></text>
<g
       transform="matrix(1,0,0,-1,0,792)"
       id="g102"
       style="stroke-width:0.80000001;stroke-miterlimit:4;stroke-dasharray:none"><path
         id="path104"
         style="fill:none;stroke:#000000;stroke-width:0.80000001;stroke-linecap:square;stroke-linejoin:miter;stroke-miterlimit:4;stroke-opacity:1;stroke-dasharray:none"
         d="m 138,565 0,-5.148" /></g><g
       transform="matrix(1,0,0,-1,0,792)"
       id="g106"
       style="stroke-width:0.80000001;stroke-miterlimit:4;stroke-dasharray:none"><path
         id="path108"
         style="fill:none;stroke:#000000;stroke-width:0.80000001;stroke-linecap:square;stroke-linejoin:miter;stroke-miterlimit:4;stroke-opacity:1;stroke-dasharray:none"
         d="m 138,212.949 0,5.153" /></g><text
       id="text110"
       transform="scale(1,-1)"
       x="132.91016"
       y="-212.14844"><tspan
         id="tspan112"
         y="-212.14844"
         x="132.91016"
         style="font-size:16px;font-variant:normal;font-weight:normal;writing-mode:lr-tb;fill:#000000;fill-opacity:1;fill-rule:nonzero;stroke:none;font-family:Bitstream Vera Sans;-inkscape-font-specification:BitstreamVeraSans-Roman">1</tspan></text>
<g
       transform="matrix(1,0,0,-1,0,792)"
       id="g114"
       style="stroke-width:0.80000001;stroke-miterlimit:4;stroke-dasharray:none"><path
         id="path116"
         style="fill:none;stroke:#000000;stroke-width:0.80000001;stroke-linecap:square;stroke-linejoin:miter;stroke-miterlimit:4;stroke-opacity:1;stroke-dasharray:none"
         d="m 227.25,565 0,-5.148" /></g><g
       transform="matrix(1,0,0,-1,0,792)"
       id="g118"
       style="stroke-width:0.80000001;stroke-miterlimit:4;stroke-dasharray:none"><path
         id="path120"
         style="fill:none;stroke:#000000;stroke-width:0.80000001;stroke-linecap:square;stroke-linejoin:miter;stroke-miterlimit:4;stroke-opacity:1;stroke-dasharray:none"
         d="m 227.25,212.949 0,5.153" /></g><text
       id="text122"
       transform="scale(1,-1)"
       x="222.16016"
       y="-212.14844"><tspan
         id="tspan124"
         y="-212.14844"
         x="222.16016"
         style="font-size:16px;font-variant:normal;font-weight:normal;writing-mode:lr-tb;fill:#000000;fill-opacity:1;fill-rule:nonzero;stroke:none;font-family:Bitstream Vera Sans;-inkscape-font-specification:BitstreamVeraSans-Roman">2</tspan></text>
<g
       transform="matrix(1,0,0,-1,0,792)"
       id="g126"
       style="stroke-width:0.80000001;stroke-miterlimit:4;stroke-dasharray:none"><path
         id="path128"
         style="fill:none;stroke:#000000;stroke-width:0.80000001;stroke-linecap:square;stroke-linejoin:miter;stroke-miterlimit:4;stroke-opacity:1;stroke-dasharray:none"
         d="m 316.551,565 0,-5.148" /></g><g
       transform="matrix(1,0,0,-1,0,792)"
       id="g130"
       style="stroke-width:0.80000001;stroke-miterlimit:4;stroke-dasharray:none"><path
         id="path132"
         style="fill:none;stroke:#000000;stroke-width:0.80000001;stroke-linecap:square;stroke-linejoin:miter;stroke-miterlimit:4;stroke-opacity:1;stroke-dasharray:none"
         d="m 316.551,212.949 0,5.153" /></g><text
       id="text134"
       transform="scale(1,-1)"
       x="311.46094"
       y="-212.14844"><tspan
         id="tspan136"
         y="-212.14844"
         x="311.46094"
         style="font-size:16px;font-variant:normal;font-weight:normal;writing-mode:lr-tb;fill:#000000;fill-opacity:1;fill-rule:nonzero;stroke:none;font-family:Bitstream Vera Sans;-inkscape-font-specification:BitstreamVeraSans-Roman">3</tspan></text>
<g
       transform="matrix(1,0,0,-1,0,792)"
       id="g138"
       style="stroke-width:0.80000001;stroke-miterlimit:4;stroke-dasharray:none"><path
         id="path140"
         style="fill:none;stroke:#000000;stroke-width:0.80000001;stroke-linecap:square;stroke-linejoin:miter;stroke-miterlimit:4;stroke-opacity:1;stroke-dasharray:none"
         d="m 405.801,565 0,-5.148" /></g><g
       transform="matrix(1,0,0,-1,0,792)"
       id="g142"
       style="stroke-width:0.80000001;stroke-miterlimit:4;stroke-dasharray:none"><path
         id="path144"
         style="fill:none;stroke:#000000;stroke-width:0.80000001;stroke-linecap:square;stroke-linejoin:miter;stroke-miterlimit:4;stroke-opacity:1;stroke-dasharray:none"
         d="m 405.801,212.949 0,5.153" /></g><text
       id="text146"
       transform="scale(1,-1)"
       x="400.71094"
       y="-212.14844"><tspan
         id="tspan148"
         y="-212.14844"
         x="400.71094"
         style="font-size:16px;font-variant:normal;font-weight:normal;writing-mode:lr-tb;fill:#000000;fill-opacity:1;fill-rule:nonzero;stroke:none;font-family:Bitstream Vera Sans;-inkscape-font-specification:BitstreamVeraSans-Roman">4</tspan></text>
<g
       transform="matrix(1,0,0,-1,0,792)"
       id="g150"
       style="stroke-width:0.80000001;stroke-miterlimit:4;stroke-dasharray:none"><path
         id="path152"
         style="fill:none;stroke:#000000;stroke-width:0.80000001;stroke-linecap:square;stroke-linejoin:miter;stroke-miterlimit:4;stroke-opacity:1;stroke-dasharray:none"
         d="m 495.051,565 0,-5.148" /></g><g
       transform="matrix(1,0,0,-1,0,792)"
       id="g154"
       style="stroke-width:0.80000001;stroke-miterlimit:4;stroke-dasharray:none"><path
         id="path156"
         style="fill:none;stroke:#000000;stroke-width:0.80000001;stroke-linecap:square;stroke-linejoin:miter;stroke-miterlimit:4;stroke-opacity:1;stroke-dasharray:none"
         d="m 495.051,212.949 0,5.153" /></g><text
       id="text158"
       transform="scale(1,-1)"
       x="489.96094"
       y="-212.14844"><tspan
         id="tspan160"
         y="-212.14844"
         x="489.96094"
         style="font-size:16px;font-variant:normal;font-weight:normal;writing-mode:lr-tb;fill:#000000;fill-opacity:1;fill-rule:nonzero;stroke:none;font-family:Bitstream Vera Sans;-inkscape-font-specification:BitstreamVeraSans-Roman">5</tspan></text>
<g
       transform="matrix(1,0,0,-1,0,792)"
       id="g162"
       style="stroke-width:0.80000001;stroke-miterlimit:4;stroke-dasharray:none"><path
         id="path164"
         style="fill:none;stroke:#000000;stroke-width:0.80000001;stroke-linecap:square;stroke-linejoin:miter;stroke-miterlimit:4;stroke-opacity:1;stroke-dasharray:none"
         d="m 93.352,212.949 0,352.051 446.347,0 0,-352.051 -446.347,0" /></g><text
       id="text166"
       transform="matrix(0,1,1,0,0,0)"
       x="334.76953"
       y="40.16082"><tspan
         id="tspan168"
         sodipodi:role="line"
         y="40.16082"
         x="334.76953 344.91354 354.75354 364.88153 373.20154 382.97754 389.55353 394.62552 406.94553 416.78552 426.24152 430.67352 440.46552 446.73752 451.16953 460.94553"
         style="font-size:16px;font-variant:normal;font-weight:normal;writing-mode:lr-tb;fill:#000000;fill-opacity:1;fill-rule:nonzero;stroke:none;font-family:Bitstream Vera Sans;-inkscape-font-specification:BitstreamVeraSans-Roman">Sensor Deviation</tspan></text>
<text
       id="text170"
       transform="scale(1,-1)"
       x="267.98047"
       y="-191.52515"><tspan
         id="tspan172"
         sodipodi:role="line"
         y="-191.52515"
         x="267.98047 278.12448 288.26846 298.10846 307.94846 318.09247 323.16446 329.40448 344.98846 350.36447 358.68448"
         style="font-size:16px;font-variant:normal;font-weight:normal;writing-mode:lr-tb;fill:#000000;fill-opacity:1;fill-rule:nonzero;stroke:none;font-family:Bitstream Vera Sans;-inkscape-font-specification:BitstreamVeraSans-Roman">Speed (m/s)</tspan><tspan
         id="tspan174"
         sodipodi:role="line"
         y="-558.47437"
         x="437.91016 448.08615 453.84616 464.02216 469.09415 484.67816"
         style="font-size:16px;font-variant:normal;font-weight:normal;writing-mode:lr-tb;fill:#000000;fill-opacity:1;fill-rule:nonzero;stroke:none;font-family:Bitstream Vera Sans;-inkscape-font-specification:BitstreamVeraSans-Roman">3-6 mm</tspan></text>
<g
       transform="matrix(1,0,0,-1,0,792)"
       id="g180"
       style="stroke-width:0.80000001;stroke-miterlimit:4;stroke-dasharray:none"><path
         id="path182"
         style="fill:none;stroke:#0000ff;stroke-width:0.80000001;stroke-linecap:square;stroke-linejoin:miter;stroke-miterlimit:4;stroke-opacity:1;stroke-dasharray:none"
         d="m 138,342.352 89.25,-1.5 89.301,11.25 89.25,82.199 89.25,40.949" /></g><path
       id="path184"
       style="fill:#0000ff;fill-opacity:1;fill-rule:nonzero;stroke:none"
       d="m 138.5,449.648 c 0,-0.664 -1,-0.664 -1,0 0,0.668 1,0.668 1,0" /><g
       transform="matrix(1,0,0,-1,0,792)"
       id="g186"
       style="stroke-width:0.80000001;stroke-miterlimit:4;stroke-dasharray:none"><path
         id="path188"
         style="fill:none;stroke:#0000ff;stroke-width:0.80000001;stroke-linecap:square;stroke-linejoin:miter;stroke-miterlimit:4;stroke-opacity:1;stroke-dasharray:none"
         d="m 135,342.352 6,0" /></g><g
       transform="matrix(1,0,0,-1,0,792)"
       id="g190"
       style="stroke-width:0.80000001;stroke-miterlimit:4;stroke-dasharray:none"><path
         id="path192"
         style="fill:none;stroke:#0000ff;stroke-width:0.80000001;stroke-linecap:square;stroke-linejoin:miter;stroke-miterlimit:4;stroke-opacity:1;stroke-dasharray:none"
         d="m 138,339.352 0,6" /></g><g
       transform="matrix(1,0,0,-1,0,792)"
       id="g194"
       style="stroke-width:0.80000001;stroke-miterlimit:4;stroke-dasharray:none"><path
         id="path196"
         style="fill:none;stroke:#0000ff;stroke-width:0.80000001;stroke-linecap:square;stroke-linejoin:miter;stroke-miterlimit:4;stroke-opacity:1;stroke-dasharray:none"
         d="m 135,339.352 6,6" /></g><g
       transform="matrix(1,0,0,-1,0,792)"
       id="g198"
       style="stroke-width:0.80000001;stroke-miterlimit:4;stroke-dasharray:none"><path
         id="path200"
         style="fill:none;stroke:#0000ff;stroke-width:0.80000001;stroke-linecap:square;stroke-linejoin:miter;stroke-miterlimit:4;stroke-opacity:1;stroke-dasharray:none"
         d="m 135,345.352 6,-6" /></g><path
       id="path202"
       style="fill:#0000ff;fill-opacity:1;fill-rule:nonzero;stroke:none"
       d="m 227.75,451.148 c 0,-0.664 -1,-0.664 -1,0 0,0.668 1,0.668 1,0" /><g
       transform="matrix(1,0,0,-1,0,792)"
       id="g204"
       style="stroke-width:0.80000001;stroke-miterlimit:4;stroke-dasharray:none"><path
         id="path206"
         style="fill:none;stroke:#0000ff;stroke-width:0.80000001;stroke-linecap:square;stroke-linejoin:miter;stroke-miterlimit:4;stroke-opacity:1;stroke-dasharray:none"
         d="m 224.25,340.852 6,0" /></g><g
       transform="matrix(1,0,0,-1,0,792)"
       id="g208"
       style="stroke-width:0.80000001;stroke-miterlimit:4;stroke-dasharray:none"><path
         id="path210"
         style="fill:none;stroke:#0000ff;stroke-width:0.80000001;stroke-linecap:square;stroke-linejoin:miter;stroke-miterlimit:4;stroke-opacity:1;stroke-dasharray:none"
         d="m 227.25,337.852 0,6" /></g><g
       transform="matrix(1,0,0,-1,0,792)"
       id="g212"
       style="stroke-width:0.80000001;stroke-miterlimit:4;stroke-dasharray:none"><path
         id="path214"
         style="fill:none;stroke:#0000ff;stroke-width:0.80000001;stroke-linecap:square;stroke-linejoin:miter;stroke-miterlimit:4;stroke-opacity:1;stroke-dasharray:none"
         d="m 224.25,337.852 6,6" /></g><g
       transform="matrix(1,0,0,-1,0,792)"
       id="g216"
       style="stroke-width:0.80000001;stroke-miterlimit:4;stroke-dasharray:none"><path
         id="path218"
         style="fill:none;stroke:#0000ff;stroke-width:0.80000001;stroke-linecap:square;stroke-linejoin:miter;stroke-miterlimit:4;stroke-opacity:1;stroke-dasharray:none"
         d="m 224.25,343.852 6,-6" /></g><path
       id="path220"
       style="fill:#0000ff;fill-opacity:1;fill-rule:nonzero;stroke:none"
       d="m 317.051,439.898 c 0,-0.664 -1,-0.664 -1,0 0,0.668 1,0.668 1,0" /><g
       transform="matrix(1,0,0,-1,0,792)"
       id="g222"
       style="stroke-width:0.80000001;stroke-miterlimit:4;stroke-dasharray:none"><path
         id="path224"
         style="fill:none;stroke:#0000ff;stroke-width:0.80000001;stroke-linecap:square;stroke-linejoin:miter;stroke-miterlimit:4;stroke-opacity:1;stroke-dasharray:none"
         d="m 313.551,352.102 6,0" /></g><g
       transform="matrix(1,0,0,-1,0,792)"
       id="g226"
       style="stroke-width:0.80000001;stroke-miterlimit:4;stroke-dasharray:none"><path
         id="path228"
         style="fill:none;stroke:#0000ff;stroke-width:0.80000001;stroke-linecap:square;stroke-linejoin:miter;stroke-miterlimit:4;stroke-opacity:1;stroke-dasharray:none"
         d="m 316.551,349.102 0,6" /></g><g
       transform="matrix(1,0,0,-1,0,792)"
       id="g230"
       style="stroke-width:0.80000001;stroke-miterlimit:4;stroke-dasharray:none"><path
         id="path232"
         style="fill:none;stroke:#0000ff;stroke-width:0.80000001;stroke-linecap:square;stroke-linejoin:miter;stroke-miterlimit:4;stroke-opacity:1;stroke-dasharray:none"
         d="m 313.551,349.102 6,6" /></g><g
       transform="matrix(1,0,0,-1,0,792)"
       id="g234"
       style="stroke-width:0.80000001;stroke-miterlimit:4;stroke-dasharray:none"><path
         id="path236"
         style="fill:none;stroke:#0000ff;stroke-width:0.80000001;stroke-linecap:square;stroke-linejoin:miter;stroke-miterlimit:4;stroke-opacity:1;stroke-dasharray:none"
         d="m 313.551,355.102 6,-6" /></g><path
       id="path238"
       style="fill:#0000ff;fill-opacity:1;fill-rule:nonzero;stroke:none"
       d="m 406.301,357.699 c 0,-0.664 -1,-0.664 -1,0 0,0.668 1,0.668 1,0" /><g
       transform="matrix(1,0,0,-1,0,792)"
       id="g240"
       style="stroke-width:0.80000001;stroke-miterlimit:4;stroke-dasharray:none"><path
         id="path242"
         style="fill:none;stroke:#0000ff;stroke-width:0.80000001;stroke-linecap:square;stroke-linejoin:miter;stroke-miterlimit:4;stroke-opacity:1;stroke-dasharray:none"
         d="m 402.801,434.301 6,0" /></g><g
       transform="matrix(1,0,0,-1,0,792)"
       id="g244"
       style="stroke-width:0.80000001;stroke-miterlimit:4;stroke-dasharray:none"><path
         id="path246"
         style="fill:none;stroke:#0000ff;stroke-width:0.80000001;stroke-linecap:square;stroke-linejoin:miter;stroke-miterlimit:4;stroke-opacity:1;stroke-dasharray:none"
         d="m 405.801,431.301 0,6" /></g><g
       transform="matrix(1,0,0,-1,0,792)"
       id="g248"
       style="stroke-width:0.80000001;stroke-miterlimit:4;stroke-dasharray:none"><path
         id="path250"
         style="fill:none;stroke:#0000ff;stroke-width:0.80000001;stroke-linecap:square;stroke-linejoin:miter;stroke-miterlimit:4;stroke-opacity:1;stroke-dasharray:none"
         d="m 402.801,431.301 6,6" /></g><g
       transform="matrix(1,0,0,-1,0,792)"
       id="g252"
       style="stroke-width:0.80000001;stroke-miterlimit:4;stroke-dasharray:none"><path
         id="path254"
         style="fill:none;stroke:#0000ff;stroke-width:0.80000001;stroke-linecap:square;stroke-linejoin:miter;stroke-miterlimit:4;stroke-opacity:1;stroke-dasharray:none"
         d="m 402.801,437.301 6,-6" /></g><path
       id="path256"
       style="fill:#0000ff;fill-opacity:1;fill-rule:nonzero;stroke:none"
       d="m 495.551,316.75 c 0,-0.668 -1,-0.668 -1,0 0,0.668 1,0.668 1,0" /><g
       transform="matrix(1,0,0,-1,0,792)"
       id="g258"
       style="stroke-width:0.80000001;stroke-miterlimit:4;stroke-dasharray:none"><path
         id="path260"
         style="fill:none;stroke:#0000ff;stroke-width:0.80000001;stroke-linecap:square;stroke-linejoin:miter;stroke-miterlimit:4;stroke-opacity:1;stroke-dasharray:none"
         d="m 492.051,475.25 6,0" /></g><g
       transform="matrix(1,0,0,-1,0,792)"
       id="g262"
       style="stroke-width:0.80000001;stroke-miterlimit:4;stroke-dasharray:none"><path
         id="path264"
         style="fill:none;stroke:#0000ff;stroke-width:0.80000001;stroke-linecap:square;stroke-linejoin:miter;stroke-miterlimit:4;stroke-opacity:1;stroke-dasharray:none"
         d="m 495.051,472.25 0,6" /></g><g
       transform="matrix(1,0,0,-1,0,792)"
       id="g266"
       style="stroke-width:0.80000001;stroke-miterlimit:4;stroke-dasharray:none"><path
         id="path268"
         style="fill:none;stroke:#0000ff;stroke-width:0.80000001;stroke-linecap:square;stroke-linejoin:miter;stroke-miterlimit:4;stroke-opacity:1;stroke-dasharray:none"
         d="m 492.051,472.25 6,6" /></g><g
       transform="matrix(1,0,0,-1,0,792)"
       id="g270"
       style="stroke-width:0.80000001;stroke-miterlimit:4;stroke-dasharray:none"><path
         id="path272"
         style="fill:none;stroke:#0000ff;stroke-width:0.80000001;stroke-linecap:square;stroke-linejoin:miter;stroke-miterlimit:4;stroke-opacity:1;stroke-dasharray:none"
         d="m 492.051,478.25 6,-6" /></g><g
       id="g3427"
       transform="translate(0,-6.6740693)"
       style="stroke-width:0.80000001;stroke-miterlimit:4;stroke-dasharray:none"><g
         id="g176"
         transform="matrix(1,0,0,-1,0,792)"
         style="stroke-width:0.80000001;stroke-miterlimit:4;stroke-dasharray:none"><path
           d="m 505.398,221.301 24.102,0"
           style="fill:none;stroke:#0000ff;stroke-width:0.80000001;stroke-linecap:square;stroke-linejoin:miter;stroke-miterlimit:4;stroke-opacity:1;stroke-dasharray:none"
           id="path178" /></g><path
         d="m 517.949,570.699 c 0,-0.664 -1,-0.664 -1,0 0,0.668 1,0.668 1,0"
         style="fill:#0000ff;fill-opacity:1;fill-rule:nonzero;stroke:none"
         id="path274" /><g
         id="g276"
         transform="matrix(1,0,0,-1,0,792)"
         style="stroke-width:0.80000001;stroke-miterlimit:4;stroke-dasharray:none"><path
           d="m 514.449,221.301 6,0"
           style="fill:none;stroke:#0000ff;stroke-width:0.80000001;stroke-linecap:square;stroke-linejoin:miter;stroke-miterlimit:4;stroke-opacity:1;stroke-dasharray:none"
           id="path278" /></g><g
         id="g280"
         transform="matrix(1,0,0,-1,0,792)"
         style="stroke-width:0.80000001;stroke-miterlimit:4;stroke-dasharray:none"><path
           d="m 517.449,218.301 0,6"
           style="fill:none;stroke:#0000ff;stroke-width:0.80000001;stroke-linecap:square;stroke-linejoin:miter;stroke-miterlimit:4;stroke-opacity:1;stroke-dasharray:none"
           id="path282" /></g><g
         id="g284"
         transform="matrix(1,0,0,-1,0,792)"
         style="stroke-width:0.80000001;stroke-miterlimit:4;stroke-dasharray:none"><path
           d="m 514.449,218.301 6,6"
           style="fill:none;stroke:#0000ff;stroke-width:0.80000001;stroke-linecap:square;stroke-linejoin:miter;stroke-miterlimit:4;stroke-opacity:1;stroke-dasharray:none"
           id="path286" /></g><g
         id="g288"
         transform="matrix(1,0,0,-1,0,792)"
         style="stroke-width:0.80000001;stroke-miterlimit:4;stroke-dasharray:none"><path
           d="m 514.449,224.301 6,-6"
           style="fill:none;stroke:#0000ff;stroke-width:0.80000001;stroke-linecap:square;stroke-linejoin:miter;stroke-miterlimit:4;stroke-opacity:1;stroke-dasharray:none"
           id="path290" /></g></g><text
       id="text292"
       transform="scale(1,-1)"
       x="437.91016"
       y="-541.90625"><tspan
         id="tspan294"
         sodipodi:role="line"
         y="-541.90625"
         x="437.91016 448.08615 453.84616 464.02216 469.09415 484.67816"
         style="font-size:16px;font-variant:normal;font-weight:normal;writing-mode:lr-tb;fill:#000000;fill-opacity:1;fill-rule:nonzero;stroke:none;font-family:Bitstream Vera Sans;-inkscape-font-specification:BitstreamVeraSans-Roman">5-8 mm</tspan></text>
<g
       transform="matrix(1,0,0,-1,0,792)"
       id="g300"
       style="stroke-width:0.80000001;stroke-miterlimit:4;stroke-dasharray:none"><path
         id="path302"
         style="fill:none;stroke:#ff0000;stroke-width:0.80000001;stroke-linecap:square;stroke-linejoin:miter;stroke-miterlimit:4;stroke-opacity:1;stroke-dasharray:none"
         d="m 138,420.648 89.25,23.653 89.301,-39.602 89.25,58.102 89.25,-113.602" /></g><path
       id="path304"
       style="fill:#ff0000;fill-opacity:1;fill-rule:nonzero;stroke:none"
       d="m 138.5,371.352 c 0,-0.668 -1,-0.668 -1,0 0,0.664 1,0.664 1,0" /><g
       transform="matrix(1,0,0,-1,0,792)"
       id="g306"
       style="stroke-width:0.80000001;stroke-miterlimit:4;stroke-dasharray:none"><path
         id="path308"
         style="fill:none;stroke:#ff0000;stroke-width:0.80000001;stroke-linecap:square;stroke-linejoin:miter;stroke-miterlimit:4;stroke-opacity:1;stroke-dasharray:none"
         d="m 135,420.648 6,0" /></g><g
       transform="matrix(1,0,0,-1,0,792)"
       id="g310"
       style="stroke-width:0.80000001;stroke-miterlimit:4;stroke-dasharray:none"><path
         id="path312"
         style="fill:none;stroke:#ff0000;stroke-width:0.80000001;stroke-linecap:square;stroke-linejoin:miter;stroke-miterlimit:4;stroke-opacity:1;stroke-dasharray:none"
         d="m 138,417.648 0,6" /></g><g
       transform="matrix(1,0,0,-1,0,792)"
       id="g314"
       style="stroke-width:0.80000001;stroke-miterlimit:4;stroke-dasharray:none"><path
         id="path316"
         style="fill:none;stroke:#ff0000;stroke-width:0.80000001;stroke-linecap:square;stroke-linejoin:miter;stroke-miterlimit:4;stroke-opacity:1;stroke-dasharray:none"
         d="m 135,417.648 6,6" /></g><g
       transform="matrix(1,0,0,-1,0,792)"
       id="g318"
       style="stroke-width:0.80000001;stroke-miterlimit:4;stroke-dasharray:none"><path
         id="path320"
         style="fill:none;stroke:#ff0000;stroke-width:0.80000001;stroke-linecap:square;stroke-linejoin:miter;stroke-miterlimit:4;stroke-opacity:1;stroke-dasharray:none"
         d="m 135,423.648 6,-6" /></g><path
       id="path322"
       style="fill:#ff0000;fill-opacity:1;fill-rule:nonzero;stroke:none"
       d="m 227.75,347.699 c 0,-0.664 -1,-0.664 -1,0 0,0.668 1,0.668 1,0" /><g
       transform="matrix(1,0,0,-1,0,792)"
       id="g324"
       style="stroke-width:0.80000001;stroke-miterlimit:4;stroke-dasharray:none"><path
         id="path326"
         style="fill:none;stroke:#ff0000;stroke-width:0.80000001;stroke-linecap:square;stroke-linejoin:miter;stroke-miterlimit:4;stroke-opacity:1;stroke-dasharray:none"
         d="m 224.25,444.301 6,0" /></g><g
       transform="matrix(1,0,0,-1,0,792)"
       id="g328"
       style="stroke-width:0.80000001;stroke-miterlimit:4;stroke-dasharray:none"><path
         id="path330"
         style="fill:none;stroke:#ff0000;stroke-width:0.80000001;stroke-linecap:square;stroke-linejoin:miter;stroke-miterlimit:4;stroke-opacity:1;stroke-dasharray:none"
         d="m 227.25,441.301 0,6" /></g><g
       transform="matrix(1,0,0,-1,0,792)"
       id="g332"
       style="stroke-width:0.80000001;stroke-miterlimit:4;stroke-dasharray:none"><path
         id="path334"
         style="fill:none;stroke:#ff0000;stroke-width:0.80000001;stroke-linecap:square;stroke-linejoin:miter;stroke-miterlimit:4;stroke-opacity:1;stroke-dasharray:none"
         d="m 224.25,441.301 6,6" /></g><g
       transform="matrix(1,0,0,-1,0,792)"
       id="g336"
       style="stroke-width:0.80000001;stroke-miterlimit:4;stroke-dasharray:none"><path
         id="path338"
         style="fill:none;stroke:#ff0000;stroke-width:0.80000001;stroke-linecap:square;stroke-linejoin:miter;stroke-miterlimit:4;stroke-opacity:1;stroke-dasharray:none"
         d="m 224.25,447.301 6,-6" /></g><path
       id="path340"
       style="fill:#ff0000;fill-opacity:1;fill-rule:nonzero;stroke:none"
       d="m 317.051,387.301 c 0,-0.668 -1,-0.668 -1,0 0,0.664 1,0.664 1,0" /><g
       transform="matrix(1,0,0,-1,0,792)"
       id="g342"
       style="stroke-width:0.80000001;stroke-miterlimit:4;stroke-dasharray:none"><path
         id="path344"
         style="fill:none;stroke:#ff0000;stroke-width:0.80000001;stroke-linecap:square;stroke-linejoin:miter;stroke-miterlimit:4;stroke-opacity:1;stroke-dasharray:none"
         d="m 313.551,404.699 6,0" /></g><g
       transform="matrix(1,0,0,-1,0,792)"
       id="g346"
       style="stroke-width:0.80000001;stroke-miterlimit:4;stroke-dasharray:none"><path
         id="path348"
         style="fill:none;stroke:#ff0000;stroke-width:0.80000001;stroke-linecap:square;stroke-linejoin:miter;stroke-miterlimit:4;stroke-opacity:1;stroke-dasharray:none"
         d="m 316.551,401.699 0,6" /></g><g
       transform="matrix(1,0,0,-1,0,792)"
       id="g350"
       style="stroke-width:0.80000001;stroke-miterlimit:4;stroke-dasharray:none"><path
         id="path352"
         style="fill:none;stroke:#ff0000;stroke-width:0.80000001;stroke-linecap:square;stroke-linejoin:miter;stroke-miterlimit:4;stroke-opacity:1;stroke-dasharray:none"
         d="m 313.551,401.699 6,6" /></g><g
       transform="matrix(1,0,0,-1,0,792)"
       id="g354"
       style="stroke-width:0.80000001;stroke-miterlimit:4;stroke-dasharray:none"><path
         id="path356"
         style="fill:none;stroke:#ff0000;stroke-width:0.80000001;stroke-linecap:square;stroke-linejoin:miter;stroke-miterlimit:4;stroke-opacity:1;stroke-dasharray:none"
         d="m 313.551,407.699 6,-6" /></g><path
       id="path358"
       style="fill:#ff0000;fill-opacity:1;fill-rule:nonzero;stroke:none"
       d="m 406.301,329.199 c 0,-0.664 -1,-0.664 -1,0 0,0.668 1,0.668 1,0" /><g
       transform="matrix(1,0,0,-1,0,792)"
       id="g360"
       style="stroke-width:0.80000001;stroke-miterlimit:4;stroke-dasharray:none"><path
         id="path362"
         style="fill:none;stroke:#ff0000;stroke-width:0.80000001;stroke-linecap:square;stroke-linejoin:miter;stroke-miterlimit:4;stroke-opacity:1;stroke-dasharray:none"
         d="m 402.801,462.801 6,0" /></g><g
       transform="matrix(1,0,0,-1,0,792)"
       id="g364"
       style="stroke-width:0.80000001;stroke-miterlimit:4;stroke-dasharray:none"><path
         id="path366"
         style="fill:none;stroke:#ff0000;stroke-width:0.80000001;stroke-linecap:square;stroke-linejoin:miter;stroke-miterlimit:4;stroke-opacity:1;stroke-dasharray:none"
         d="m 405.801,459.801 0,6" /></g><g
       transform="matrix(1,0,0,-1,0,792)"
       id="g368"
       style="stroke-width:0.80000001;stroke-miterlimit:4;stroke-dasharray:none"><path
         id="path370"
         style="fill:none;stroke:#ff0000;stroke-width:0.80000001;stroke-linecap:square;stroke-linejoin:miter;stroke-miterlimit:4;stroke-opacity:1;stroke-dasharray:none"
         d="m 402.801,459.801 6,6" /></g><g
       transform="matrix(1,0,0,-1,0,792)"
       id="g372"
       style="stroke-width:0.80000001;stroke-miterlimit:4;stroke-dasharray:none"><path
         id="path374"
         style="fill:none;stroke:#ff0000;stroke-width:0.80000001;stroke-linecap:square;stroke-linejoin:miter;stroke-miterlimit:4;stroke-opacity:1;stroke-dasharray:none"
         d="m 402.801,465.801 6,-6" /></g><path
       id="path376"
       style="fill:#ff0000;fill-opacity:1;fill-rule:nonzero;stroke:none"
       d="m 495.551,442.801 c 0,-0.668 -1,-0.668 -1,0 0,0.664 1,0.664 1,0" /><g
       transform="matrix(1,0,0,-1,0,792)"
       id="g378"
       style="stroke-width:0.80000001;stroke-miterlimit:4;stroke-dasharray:none"><path
         id="path380"
         style="fill:none;stroke:#ff0000;stroke-width:0.80000001;stroke-linecap:square;stroke-linejoin:miter;stroke-miterlimit:4;stroke-opacity:1;stroke-dasharray:none"
         d="m 492.051,349.199 6,0" /></g><g
       transform="matrix(1,0,0,-1,0,792)"
       id="g382"
       style="stroke-width:0.80000001;stroke-miterlimit:4;stroke-dasharray:none"><path
         id="path384"
         style="fill:none;stroke:#ff0000;stroke-width:0.80000001;stroke-linecap:square;stroke-linejoin:miter;stroke-miterlimit:4;stroke-opacity:1;stroke-dasharray:none"
         d="m 495.051,346.199 0,6" /></g><g
       transform="matrix(1,0,0,-1,0,792)"
       id="g386"
       style="stroke-width:0.80000001;stroke-miterlimit:4;stroke-dasharray:none"><path
         id="path388"
         style="fill:none;stroke:#ff0000;stroke-width:0.80000001;stroke-linecap:square;stroke-linejoin:miter;stroke-miterlimit:4;stroke-opacity:1;stroke-dasharray:none"
         d="m 492.051,346.199 6,6" /></g><g
       transform="matrix(1,0,0,-1,0,792)"
       id="g390"
       style="stroke-width:0.80000001;stroke-miterlimit:4;stroke-dasharray:none"><path
         id="path392"
         style="fill:none;stroke:#ff0000;stroke-width:0.80000001;stroke-linecap:square;stroke-linejoin:miter;stroke-miterlimit:4;stroke-opacity:1;stroke-dasharray:none"
         d="m 492.051,352.199 6,-6" /></g><g
       id="g3414"
       transform="translate(0,-13.941389)"
       style="stroke-width:0.80000001;stroke-miterlimit:4;stroke-dasharray:none"><g
         id="g296"
         transform="matrix(1,0,0,-1,0,792)"
         style="stroke-width:0.80000001;stroke-miterlimit:4;stroke-dasharray:none"><path
           d="m 505.398,230.602 24.102,0"
           style="fill:none;stroke:#ff0000;stroke-width:0.80000001;stroke-linecap:square;stroke-linejoin:miter;stroke-miterlimit:4;stroke-opacity:1;stroke-dasharray:none"
           id="path298" /></g><path
         d="m 517.949,561.398 c 0,-0.664 -1,-0.664 -1,0 0,0.668 1,0.668 1,0"
         style="fill:#ff0000;fill-opacity:1;fill-rule:nonzero;stroke:none"
         id="path394" /><g
         id="g396"
         transform="matrix(1,0,0,-1,0,792)"
         style="stroke-width:0.80000001;stroke-miterlimit:4;stroke-dasharray:none"><path
           d="m 514.449,230.602 6,0"
           style="fill:none;stroke:#ff0000;stroke-width:0.80000001;stroke-linecap:square;stroke-linejoin:miter;stroke-miterlimit:4;stroke-opacity:1;stroke-dasharray:none"
           id="path398" /></g><g
         id="g400"
         transform="matrix(1,0,0,-1,0,792)"
         style="stroke-width:0.80000001;stroke-miterlimit:4;stroke-dasharray:none"><path
           d="m 517.449,227.602 0,6"
           style="fill:none;stroke:#ff0000;stroke-width:0.80000001;stroke-linecap:square;stroke-linejoin:miter;stroke-miterlimit:4;stroke-opacity:1;stroke-dasharray:none"
           id="path402" /></g><g
         id="g404"
         transform="matrix(1,0,0,-1,0,792)"
         style="stroke-width:0.80000001;stroke-miterlimit:4;stroke-dasharray:none"><path
           d="m 514.449,227.602 6,6"
           style="fill:none;stroke:#ff0000;stroke-width:0.80000001;stroke-linecap:square;stroke-linejoin:miter;stroke-miterlimit:4;stroke-opacity:1;stroke-dasharray:none"
           id="path406" /></g><g
         id="g408"
         transform="matrix(1,0,0,-1,0,792)"
         style="stroke-width:0.80000001;stroke-miterlimit:4;stroke-dasharray:none"><path
           d="m 514.449,233.602 6,-6"
           style="fill:none;stroke:#ff0000;stroke-width:0.80000001;stroke-linecap:square;stroke-linejoin:miter;stroke-miterlimit:4;stroke-opacity:1;stroke-dasharray:none"
           id="path410" /></g></g></g></svg>